#N canvas 0 0 3424 1332 10;
#X obj 72 -1738 tgl 15 0 empty empty empty 17 7 0 10 #fcfcfc #000000
#000000 1 1;
#X msg 72 -1718 \; pd dsp \$1;
#X obj 820 -1610 bng 137 250 50 0 swing empty swing 0 -9 0 10 #fcfcfc
#000000 #000000;
#N canvas 0 50 450 300 (subpatch) 0;
#X array array3 2051 float 0 black black;
#X coords 0 1 2050 -1 200 100 1;
#X restore 2550 -1170 graph;
#X obj 1562 -277 metro 100;
#X obj 1563 -307 tgl 15 1 empty empty empty 17 7 0 10 #fcfcfc #000000
#000000 1 1;
#X obj 1562 -245 tabwrite~ array3;
#X obj 1450 -810 bp~ 2200 8;
#X obj 1450 -760 *~ 8;
#X obj 1452 -507 +~;
#X obj 1452 -357 *~;
#X obj 1432 -227 dac~;
#X obj 1600 -700 expr~ tanh($v1);
#X floatatom 1601 -779 5 0 0 0 - - -, f 5;
#X obj 1600 -724 *~;
#X text 1642 -794 Distortion Amount;
#X obj 1612 -817 receive distortionAmnt;
#X obj 1505 -625 expr 1 - $f1;
#X obj 1454 -569 *~;
#X floatatom 1494 -596 5 0 0 0 - - -, f 5;
#X text 1531 -593 "dry" signal;
#X obj 1653 -593 *~;
#X floatatom 1680 -620 5 0 0 0 - - -, f 5;
#X text 1688 -592 wet;
#X floatatom 1807 -648 5 0 0 0 - - -, f 5;
#X obj 1806 -675 receive distortionWetDry;
#X obj 1750 -700 loadbang;
#X msg 1750 -670 0;
#X obj 588 -732 metro 100;
#X obj 589 -762 tgl 15 1 empty empty empty 17 7 0 10 #fcfcfc #000000
#000000 1 1;
#N canvas 0 50 450 300 (subpatch) 0;
#X array array2 2051 float 0 black black;
#X coords 0 1 2050 -1 200 100 1;
#X restore 2010 -1280 graph;
#X obj 588 -700 tabwrite~ array2;
#X obj 1562 -417 r masterVolume;
#X obj 1692 -425 vline~;
#X obj 377 -1398 noise~;
#X obj 388 -972 *~;
#X obj 651 -1001 vline~;
#X obj 401 -801 dac~;
#X obj 239 -1091 *~;
#X floatatom 254 -1119 5 0 0 0 - - -, f 5;
#X obj 239 -1230 lop~ 4000;
#X floatatom 428 -1250 5 0 0 0 - - -, f 5;
#X floatatom 500 -1210 5 0 0 0 - - -, f 5;
#X floatatom 289 -1260 5 0 0 0 - - -, f 5;
#X obj 586 -1227 hip~ 200;
#X floatatom 630 -1254 5 0 0 0 - - -, f 5;
#X obj 404 -1081 *~;
#X floatatom 421 -1105 5 0 0 0 - - -, f 5;
#X obj 584 -1092 *~;
#X floatatom 601 -1116 5 0 0 0 - - -, f 5;
#X obj 291 -1289 receive lopFreq;
#X obj 255 -1148 receive lopGain;
#X obj 410 -1310 receive bpFreq;
#X obj 420 -1134 receive bpGain;
#X obj 630 -1280 receive hpFreq;
#X obj 602 -1144 receive hpGain;
#X obj 401 -1216 bp~ 200 5;
#X obj 1951 -1583 hsl 128 15 0 1 0 0 lopGain lopGain LowPass_Gain -2
-8 0 10 #fcfcfc #000000 #000000 0 1;
#X obj 1807 -1582 hsl 128 15 50 4000 0 1 lopFreq lopFreq LowPass_Frequency
-2 -8 0 10 #fcfcfc #000000 #000000 0 1;
#X obj 1951 -1540 hsl 128 15 0 1 0 1 bpGain bpGain BandPass_Gain -2
-8 0 10 #fcfcfc #000000 #000000 6400 1;
#X obj 1807 -1541 hsl 128 15 1000 4000 0 1 bpFreq bpFreq BandPass_Frequency
-2 -8 0 10 #fcfcfc #000000 #000000 9200 1;
#X obj 1951 -1496 hsl 128 15 0 1 0 1 hpGain hpGain HighPass_Gain -2
-8 0 10 #fcfcfc #000000 #000000 2700 1;
#X obj 1805 -1496 hsl 128 15 1000 4000 0 1 hpFreq hpFreq HighPass_Frequency
-2 -8 0 10 #fcfcfc #000000 #000000 2700 1;
#X obj 652 -1064 r swing;
#X obj 1692 -517 r swing;
#X obj 2115 -1546 hsl 128 15 1 8 0 1 bpQ bpQ BandPass_Q -2 -8 0 10
#fcfcfc #000000 #000000 11100 1;
#X obj 480 -1280 receive bpQ;
#X obj 500 -1250 int;
#X obj 1593 -1523 hsl 128 15 0 1 0 1 flangerShift flangerShift Flanger:_Shift
-2 -8 0 10 #fcfcfc #000000 #000000 7400 1;
#X obj 1590 -1560 hsl 128 15 0 1 0 1 flangerDepth flangerDepth Flanger:_Depth
-2 -8 0 10 #fcfcfc #000000 #000000 2700 1;
#X obj 1593 -1481 hsl 128 15 0 1 0 1 flangerFeedback flangerFeedback
Flanger:_Feedback -2 -8 0 10 #fcfcfc #000000 #000000 11300 1;
#X obj 1589 -1595 hsl 128 15 0 5 0 1 flangerRate flangerRate Flanger:_Rate
-2 -8 0 10 #fcfcfc #000000 #000000 8600 1;
#X text 540 -1350 Wind/Breathing;
#X obj 1452 -447 rev3~ 100 80 3000 20;
#X obj 1480 -870 dac~;
#X obj 1240 -1129 vline~;
#X obj 1241 -1192 r swing;
#X obj 1080 -1090 *~;
#X obj 1543 -1041 metro 100;
#X obj 1544 -1071 tgl 15 1 empty empty empty 17 7 0 10 #fcfcfc #000000
#000000 1 1;
#N canvas 0 50 450 300 (subpatch) 0;
#X array clicks 2051 float 0 black black;
#X coords 0 1 2050 -1 200 100 1;
#X restore 2010 -1170 graph;
#X obj 1543 -1009 tabwrite~ clicks;
#X obj 990 -1050 *~ 2;
#X obj 1432 -277 *~ 2;
#X obj 980 -380 dac~;
#X obj 1190 -412 metro 100;
#X obj 1191 -442 tgl 15 1 empty empty empty 17 7 0 10 #fcfcfc #000000
#000000 1 1;
#N canvas 0 50 450 300 (subpatch) 0;
#X array clicks2 2051 float 0 black black;
#X coords 0 1 2050 -1 300 100 1;
#X restore 2230 -1170 graph;
#X obj 1190 -380 tabwrite~ clicks2;
#X obj 1022 -770 +~ 1;
#X obj 1022 -743 *~ 0.5;
#X obj 1021 -561 vd~ \$0-delay1, f 16;
#X text 1020 -870 Low Frequency Oscillator;
#X text 1150 -715 Depth (ms);
#X obj 1021 -465 *~ 1;
#X text 1034 -432 y[n] = x[n] + ax[n-t];
#X text 1110 -491 Feedback (0-1);
#X obj 1022 -797 osc~ 1;
#X text 1064 -465 ax[n-t];
#X text 1078 -822 Rate (Hz);
#X obj 980 -440 +~, f 4;
#X obj 1022 -819 nbx 5 14 -1e+37 1e+37 0 0 empty \$0-rate empty 0 -8
0 10 #fcfcfc #000000 #000000 3.38583 256 0;
#X obj 1091 -711 nbx 5 14 0 1e+37 0 0 empty \$0-depth empty 0 -8 0
10 #fcfcfc #000000 #000000 0.212598 256 0;
#X obj 1094 -622 nbx 5 14 0 1e+37 0 0 empty \$0-shift empty 0 -8 0
10 #fcfcfc #000000 #000000 0.582677 256 0;
#X obj 1050 -489 nbx 5 14 0 1 0 0 empty \$0-feedback empty 0 -8 0 10
#fcfcfc #000000 #000000 0.889764 256 0;
#X obj 1022 -684 *~ 1, f 9;
#X obj 1021 -601 +~ 0.001, f 11;
#X obj 1091 -739 receive flangerDepth;
#X obj 1094 -651 receive flangerShift;
#X obj 1052 -523 receive flangerFeedback;
#X obj 1030 -910 delwrite~ \$0-delay1 5000;
#X obj 1022 -846 receive flangerRate;
#X msg 1240 -1150 0 100 \, 0.7 250 300 \, 1 400 650 \, 0 500 650;
#X obj 1493 -951 rev3~ 100 86 2250 50;
#X msg 658 -1032 0 100 \, 0.5 150 300 \, 0.7 300 650 \, 0 200 850;
#X msg 1692 -477 0 100 \, 0.7 250 300 \, 1 400 650 \, 0 500 650;
#X obj 1081 -1272 clip~ 0 1;
#X obj 1154 -1273 noise~;
#X obj 1081 -1231 lop~ 30;
#X obj 1036 -1385 noise~;
#X obj 1154 -1252 hip~ 1000;
#X obj 1081 -1156 hip~ 100;
#X obj 1081 -1292 *~ 600;
#X obj 1081 -1252 hip~ 10;
#X obj 1036 -1363 bp~ 9 15;
#X obj 1109 -1371 osc~ 9;
#X obj 1036 -1341 *~;
#X obj 1109 -1323 *~;
#X obj 1125 -1345 == 0;
#X obj 1154 -1231 bp~ 590 4;
#X obj 1013 -1183 bp~ 470 8;
#X obj 1081 -1183 bp~ 780 9;
#X obj 1149 -1183 bp~ 1024 10;
#X obj 1081 -1208 *~;
#X obj 2390 -699 vline~;
#X obj 2391 -762 r swing;
#X obj 2210 -640 *~;
#X obj 2200 -610 *~ 2;
#X obj 2122 -13 dac~;
#X obj 2332 -45 metro 100;
#X obj 2333 -75 tgl 15 1 empty empty empty 17 7 0 10 #fcfcfc #000000
#000000 1 1;
#X obj 2332 -13 tabwrite~ clicks2;
#X obj 2164 -403 +~ 1;
#X obj 2164 -376 *~ 0.5;
#X obj 2163 -194 vd~ \$0-delay1, f 16;
#X text 2162 -503 Low Frequency Oscillator;
#X text 2292 -348 Depth (ms);
#X obj 2163 -98 *~ 1;
#X text 2176 -65 y[n] = x[n] + ax[n-t];
#X text 2252 -124 Feedback (0-1);
#X obj 2164 -430 osc~ 1;
#X text 2206 -98 ax[n-t];
#X text 2220 -455 Rate (Hz);
#X obj 2122 -73 +~, f 4;
#X obj 2164 -452 nbx 5 14 -1e+37 1e+37 0 0 empty \$0-rate empty 0 -8
0 10 #fcfcfc #000000 #000000 3.38583 256 0;
#X obj 2233 -344 nbx 5 14 0 1e+37 0 0 empty \$0-depth empty 0 -8 0
10 #fcfcfc #000000 #000000 0.212598 256 0;
#X obj 2236 -255 nbx 5 14 0 1e+37 0 0 empty \$0-shift empty 0 -8 0
10 #fcfcfc #000000 #000000 0.582677 256 0;
#X obj 2192 -122 nbx 5 14 0 1 0 0 empty \$0-feedback empty 0 -8 0 10
#fcfcfc #000000 #000000 0.889764 256 0;
#X obj 2164 -317 *~ 1, f 9;
#X obj 2163 -234 +~ 0.001, f 11;
#X obj 2233 -372 receive flangerDepth;
#X obj 2236 -284 receive flangerShift;
#X obj 2194 -156 receive flangerFeedback;
#X obj 2172 -543 delwrite~ \$0-delay1 5000;
#X obj 2164 -479 receive flangerRate;
#X msg 2390 -720 0 100 \, 0.7 250 300 \, 1 400 650 \, 0 500 650;
#X obj 2192 -809 clip~ 0 1;
#X obj 2265 -810 noise~;
#X obj 2192 -768 lop~ 30;
#X obj 2147 -922 noise~;
#X obj 2265 -789 hip~ 1000;
#X obj 2192 -693 hip~ 100;
#X obj 2192 -829 *~ 600;
#X obj 2192 -789 hip~ 10;
#X obj 2147 -900 bp~ 9 15;
#X obj 2220 -908 osc~ 9;
#X obj 2147 -878 *~;
#X obj 2220 -860 *~;
#X obj 2236 -882 == 0;
#X obj 2265 -768 bp~ 590 4;
#X obj 2124 -720 bp~ 470 8;
#X obj 2192 -720 bp~ 780 9;
#X obj 2260 -720 bp~ 1024 10;
#X obj 2192 -745 *~;
#X obj 1379 -1512 hsl 128 15 0 1 0 1 distortionWetDry distortionWetDry
Distortion:_Dry_---_Wet -2 -8 0 10 #fcfcfc #000000 #000000 3100 1;
#X obj 1380 -1550 hsl 128 15 0.5 6 0 1 distortionAmnt distortionAmnt
Distortion_Amount -2 -8 0 10 #fcfcfc #000000 #000000 6700 1;
#X obj 398 -872 rev3~ 85 82 2000 50;
#X text 190 -1491 creation arguments are OSC address;
#X text 192 -1530 set message to change OSC address;
#X floatatom 56 -1574 5 0 0 0 - - -, f 5;
#N canvas 900 334 1253 825 oscReceive 0;
#X obj 55 184 netreceive -u -b;
#X msg 78 143 listen 0;
#X text 152 143 stop listening;
#X text 64 58 packets from network;
#X text 173 177 UDP packets \, binary output, f 13;
#X obj 45 314 print;
#X obj 45 272 oscparse;
#X text 150 114 listen on port 8000;
#X obj 177 269 oscparse;
#X obj 177 293 list trim;
#X text 241 267 Parse the OSC message;
#X obj 177 319 route unity;
#X msg 66 115 listen 8000;
#X obj 66 84 loadbang;
#X floatatom 111 534 5 0 0 0 - - -, f 5;
#X obj 110 565 s swing;
#X obj 112 499 route swing;
#X connect 0 0 6 0;
#X connect 0 0 8 0;
#X connect 1 0 0 0;
#X connect 6 0 5 0;
#X connect 8 0 9 0;
#X connect 9 0 11 0;
#X connect 11 0 16 0;
#X connect 12 0 0 0;
#X connect 13 0 12 0;
#X connect 14 0 15 0;
#X connect 16 0 14 0;
#X restore 60 -1626 pd oscReceive;
#X obj 57 -1490 oscformat PD message;
#X msg 89 -1529 set PD message;
#N canvas 32 227 1293 998 oscSend 0;
#X msg 158 207 disconnect;
#X obj 61 253 netsend -u -b;
#X obj 59 55 list prepend send;
#X obj 59 80 list trim;
#X msg 150 175 connect 127.0.0.1 8001;
#X obj 59 29 r oscOut;
#X text 301 163 send to port 8001;
#X msg 147 148 connect localhost 8001;
#X obj 147 108 loadbang;
#X connect 0 0 1 0;
#X connect 2 0 3 0;
#X connect 3 0 1 0;
#X connect 4 0 1 0;
#X connect 5 0 2 0;
#X connect 7 0 1 0;
#X connect 8 0 7 0;
#X restore 60 -1650 pd oscSend;
#X obj 57 -1455 s oscOut;
#X connect 0 0 1 0;
#X connect 4 0 6 0;
#X connect 5 0 4 0;
#X connect 7 0 8 0;
#X connect 8 0 18 0;
#X connect 8 0 14 0;
#X connect 9 0 73 0;
#X connect 10 0 83 0;
#X connect 12 0 21 0;
#X connect 13 0 14 1;
#X connect 14 0 12 0;
#X connect 16 0 13 0;
#X connect 17 0 19 0;
#X connect 18 0 9 0;
#X connect 19 0 18 1;
#X connect 21 0 9 0;
#X connect 22 0 21 1;
#X connect 24 0 17 0;
#X connect 24 0 22 0;
#X connect 25 0 24 0;
#X connect 26 0 27 0;
#X connect 27 0 24 0;
#X connect 28 0 31 0;
#X connect 29 0 28 0;
#X connect 32 0 10 1;
#X connect 33 0 10 1;
#X connect 34 0 44 0;
#X connect 34 0 40 0;
#X connect 34 0 56 0;
#X connect 35 0 186 0;
#X connect 36 0 35 1;
#X connect 38 0 35 0;
#X connect 39 0 38 1;
#X connect 40 0 38 0;
#X connect 41 0 56 1;
#X connect 42 0 56 2;
#X connect 43 0 40 1;
#X connect 44 0 48 0;
#X connect 45 0 44 1;
#X connect 46 0 35 0;
#X connect 47 0 46 1;
#X connect 48 0 35 0;
#X connect 49 0 48 1;
#X connect 50 0 43 0;
#X connect 51 0 39 0;
#X connect 52 0 41 0;
#X connect 53 0 47 0;
#X connect 54 0 45 0;
#X connect 55 0 49 0;
#X connect 56 0 46 0;
#X connect 63 0 114 0;
#X connect 64 0 115 0;
#X connect 66 0 67 0;
#X connect 67 0 42 0;
#X connect 73 0 10 0;
#X connect 75 0 77 1;
#X connect 76 0 112 0;
#X connect 77 0 82 0;
#X connect 78 0 81 0;
#X connect 79 0 78 0;
#X connect 82 0 113 0;
#X connect 82 0 7 0;
#X connect 82 0 110 0;
#X connect 82 0 100 0;
#X connect 83 0 6 0;
#X connect 83 0 11 0;
#X connect 83 0 11 1;
#X connect 85 0 88 0;
#X connect 86 0 85 0;
#X connect 89 0 90 0;
#X connect 90 0 105 0;
#X connect 91 0 94 0;
#X connect 94 0 100 1;
#X connect 97 0 89 0;
#X connect 100 0 84 0;
#X connect 100 0 84 1;
#X connect 100 0 88 0;
#X connect 101 0 97 0;
#X connect 102 0 105 1;
#X connect 103 0 106 1;
#X connect 104 0 94 1;
#X connect 105 0 106 0;
#X connect 106 0 91 0;
#X connect 107 0 102 0;
#X connect 108 0 103 0;
#X connect 109 0 104 0;
#X connect 111 0 101 0;
#X connect 112 0 75 0;
#X connect 113 0 74 0;
#X connect 113 0 74 1;
#X connect 113 0 81 0;
#X connect 114 0 36 0;
#X connect 115 0 33 0;
#X connect 116 0 123 0;
#X connect 117 0 120 0;
#X connect 118 0 133 0;
#X connect 119 0 124 0;
#X connect 120 0 129 0;
#X connect 121 0 77 0;
#X connect 122 0 116 0;
#X connect 123 0 118 0;
#X connect 124 0 126 0;
#X connect 125 0 127 0;
#X connect 126 0 122 0;
#X connect 127 0 122 0;
#X connect 128 0 127 1;
#X connect 129 0 133 1;
#X connect 130 0 121 0;
#X connect 131 0 121 0;
#X connect 132 0 121 0;
#X connect 133 0 130 0;
#X connect 133 0 131 0;
#X connect 133 0 132 0;
#X connect 134 0 136 1;
#X connect 135 0 165 0;
#X connect 136 0 137 0;
#X connect 137 0 163 0;
#X connect 137 0 153 0;
#X connect 139 0 141 0;
#X connect 140 0 139 0;
#X connect 142 0 143 0;
#X connect 143 0 158 0;
#X connect 144 0 147 0;
#X connect 147 0 153 1;
#X connect 150 0 142 0;
#X connect 153 0 138 0;
#X connect 153 0 138 1;
#X connect 153 0 141 0;
#X connect 154 0 150 0;
#X connect 155 0 158 1;
#X connect 156 0 159 1;
#X connect 157 0 147 1;
#X connect 158 0 159 0;
#X connect 159 0 144 0;
#X connect 160 0 155 0;
#X connect 161 0 156 0;
#X connect 162 0 157 0;
#X connect 164 0 154 0;
#X connect 165 0 134 0;
#X connect 166 0 173 0;
#X connect 167 0 170 0;
#X connect 168 0 183 0;
#X connect 169 0 174 0;
#X connect 170 0 179 0;
#X connect 171 0 136 0;
#X connect 172 0 166 0;
#X connect 173 0 168 0;
#X connect 174 0 176 0;
#X connect 175 0 177 0;
#X connect 176 0 172 0;
#X connect 177 0 172 0;
#X connect 178 0 177 1;
#X connect 179 0 183 1;
#X connect 180 0 171 0;
#X connect 181 0 171 0;
#X connect 182 0 171 0;
#X connect 183 0 180 0;
#X connect 183 0 181 0;
#X connect 183 0 182 0;
#X connect 186 0 31 0;
#X connect 186 0 37 0;
#X connect 186 0 37 1;
#X connect 189 0 191 0;
#X connect 191 0 194 0;
#X connect 192 0 191 0;
