#N canvas 932 241 1560 849 12;
#X obj 16 9 tgl 15 0 empty empty empty 17 7 0 10 #fcfcfc #000000 #000000
0 1;
#X msg 16 34 \; pd dsp \$1;
#N canvas 816 130 504 454 oscillators 0;
#X obj 206 2 inlet;
#X obj 194 487 outlet~;
#X obj 205 385 *~;
#X obj 342 390 *~;
#X obj 60 380 *~;
#X obj 83 349 receive oscgain1;
#X obj 224 349 receive oscgain2;
#X obj 362 349 receive oscgain3;
#X obj 55 174 +;
#X obj 74 110 receive oscpitch1;
#X obj 206 174 +;
#X obj 344 172 +;
#X floatatom 206 28 5 0 0 0 - - -, f 5;
#X obj 54 198 mtof;
#X obj 344 196 mtof;
#X obj 205 199 mtof;
#X floatatom 10 233 5 0 0 0 - - -, f 5;
#X obj 224 107 receive oscpitch2;
#X obj 361 113 receive oscpitch3;
#X obj 45 134 bng 15 250 50 0 empty empty empty 17 7 0 10 #fcfcfc #000000
#000000;
#X obj 351 141 bng 15 250 50 0 empty empty empty 17 7 0 10 #fcfcfc
#000000 #000000;
#X obj 211 135 bng 15 250 50 0 empty empty empty 17 7 0 10 #fcfcfc
#000000 #000000;
#X obj 341 228 phasor~;
#X obj 341 249 *~ 2;
#X obj 341 270 -~ 1;
#X obj 205 229 phasor~;
#X obj 205 250 *~ 2;
#X obj 205 271 -~ 1;
#X obj 55 227 osc~;
#X connect 0 0 12 0;
#X connect 2 0 1 0;
#X connect 3 0 1 0;
#X connect 4 0 1 0;
#X connect 5 0 4 1;
#X connect 6 0 2 1;
#X connect 7 0 3 1;
#X connect 8 0 13 0;
#X connect 9 0 8 1;
#X connect 9 0 19 0;
#X connect 10 0 15 0;
#X connect 11 0 14 0;
#X connect 12 0 10 0;
#X connect 12 0 8 0;
#X connect 12 0 11 0;
#X connect 13 0 16 0;
#X connect 13 0 28 0;
#X connect 14 0 22 0;
#X connect 15 0 25 0;
#X connect 17 0 10 1;
#X connect 17 0 21 0;
#X connect 18 0 11 1;
#X connect 18 0 20 0;
#X connect 19 0 8 0;
#X connect 20 0 11 0;
#X connect 21 0 10 0;
#X connect 22 0 23 0;
#X connect 23 0 24 0;
#X connect 24 0 3 0;
#X connect 25 0 26 0;
#X connect 26 0 27 0;
#X connect 27 0 2 0;
#X connect 28 0 4 0;
#X restore 289 234 pd oscillators;
#X obj 525 204 hsl 128 15 0 1 0 1 oscgain2 oscgain2 Osc_Gain2 -2 -8
0 10 #fcfcfc #000000 #000000 3050 1;
#X obj 530 1540 hsl 128 15 0 4 0 1 mastergain1_health mastergain1_health
Master_Gain -2 -8 0 10 #fcfcfc #000000 #000000 12700 1;
#X obj 527 165 hsl 128 15 0 1 0 1 oscgain1 oscgain1 Osc_Gain1 -2 -8
0 10 #fcfcfc #000000 #000000 12700 1;
#N canvas 182 60 330 215 masterGain 0;
#X obj 84 126 *~;
#X floatatom 104 102 5 0 0 0 - - -, f 5;
#X obj 56 28 inlet~;
#X obj 76 191 outlet~;
#X obj 110 70 receive mastergain1_health;
#X connect 0 0 3 0;
#X connect 1 0 0 1;
#X connect 2 0 0 0;
#X connect 4 0 1 0;
#X restore 320 1550 pd masterGain;
#X obj 267 1611 dac~;
#X obj 525 246 hsl 128 15 0 1 0 1 oscgain3 oscgain3 Osc_Gain3 -2 -8
0 10 #fcfcfc #000000 #000000 3200 1;
#X obj 409 369 hsl 128 15 0 1 0 1 distortionWetDry_health distortionWetDry_health
Distortion:_Dry_---_Wet -2 -8 0 10 #fcfcfc #000000 #000000 2600 1;
#N canvas 75 124 712 563 distortion 0;
#X obj 147 32 inlet~;
#X obj 206 414 outlet~;
#X obj 233 166 expr~ tanh($v1);
#X floatatom 234 87 5 0 0 0 - - -, f 5;
#X obj 233 142 *~;
#X text 275 72 Distortion Amount;
#X obj 80 244 expr 1 - $f1;
#X obj 29 300 *~;
#X floatatom 69 273 5 0 0 0 - - -, f 5;
#X text 106 276 "dry" signal;
#X obj 299 284 *~;
#X floatatom 326 257 5 0 0 0 - - -, f 5;
#X text 334 285 wet;
#X floatatom 449 174 5 0 0 0 - - -, f 5;
#X obj 392 122 loadbang;
#X msg 392 152 0;
#X obj 448 147 receive distortionWetDry_health;
#X obj 245 49 receive distortionAmnt_health;
#X connect 0 0 4 0;
#X connect 0 0 7 0;
#X connect 2 0 10 0;
#X connect 3 0 4 1;
#X connect 4 0 2 0;
#X connect 6 0 8 0;
#X connect 7 0 1 0;
#X connect 8 0 7 1;
#X connect 10 0 1 0;
#X connect 11 0 10 1;
#X connect 13 0 6 0;
#X connect 13 0 11 0;
#X connect 14 0 15 0;
#X connect 15 0 13 0;
#X connect 16 0 13 0;
#X connect 17 0 3 0;
#X restore 300 301 pd distortion;
#X obj 410 331 hsl 128 15 0.5 6 0 1 distortionAmnt_health distortionAmnt_health
Distortion_Amount -2 -8 0 10 #fcfcfc #000000 #000000 12700 1;
#N canvas 78 386 710 599 filterbank 0;
#X obj 195 311 *~;
#X floatatom 210 283 5 0 0 0 - - -, f 5;
#X floatatom 384 152 5 0 0 0 - - -, f 5;
#X floatatom 245 142 5 0 0 0 - - -, f 5;
#X floatatom 586 148 5 0 0 0 - - -, f 5;
#X obj 360 321 *~;
#X floatatom 377 297 5 0 0 0 - - -, f 5;
#X obj 540 310 *~;
#X floatatom 557 286 5 0 0 0 - - -, f 5;
#X obj 360 71 inlet~;
#X obj 86 522 outlet~;
#X obj 195 172 lop~ 50;
#X obj 542 175 hip~ 1000;
#X obj 34 210 *~;
#X floatatom 54 165 5 0 0 0 - - -, f 5;
#X text 91 167 "dry" signal;
#X obj 56 136 expr 1 - $f1;
#X obj 203 449 *~;
#X floatatom 232 402 5 0 0 0 - - -, f 5;
#X obj 43 55 loadbang;
#X msg 44 81 0;
#X obj 357 186 bp~ 1000 10;
#X obj 73 88 r bypassFilterBank_health;
#X obj 247 113 receive lopFreq_health;
#X obj 385 115 receive bpFreq_health;
#X obj 586 122 receive hpFreq_health;
#X obj 558 258 receive hpGain_health;
#X obj 376 268 receive bpGain_health;
#X obj 211 254 receive lopGain_health;
#X connect 0 0 17 0;
#X connect 1 0 0 1;
#X connect 2 0 21 1;
#X connect 3 0 11 1;
#X connect 4 0 12 1;
#X connect 5 0 17 0;
#X connect 6 0 5 1;
#X connect 7 0 17 0;
#X connect 8 0 7 1;
#X connect 9 0 11 0;
#X connect 9 0 12 0;
#X connect 9 0 13 0;
#X connect 9 0 21 0;
#X connect 11 0 0 0;
#X connect 12 0 7 0;
#X connect 13 0 10 0;
#X connect 14 0 13 1;
#X connect 16 0 14 0;
#X connect 17 0 10 0;
#X connect 18 0 17 1;
#X connect 19 0 20 0;
#X connect 20 0 16 0;
#X connect 21 0 5 0;
#X connect 22 0 16 0;
#X connect 22 0 18 0;
#X connect 23 0 3 0;
#X connect 24 0 2 0;
#X connect 25 0 4 0;
#X connect 26 0 8 0;
#X connect 27 0 6 0;
#X connect 28 0 1 0;
#X restore 367 1000 pd filterbank;
#N canvas 940 295 740 505 reverb 0;
#X obj 162 49 inlet~;
#X obj 144 364 outlet~;
#X floatatom 444 156 0 0 120 0 - - -;
#X text 485 156 level \, dB;
#X floatatom 472 173 0 0 100 0 - - -;
#X text 513 173 liveness \, 0-100;
#X floatatom 507 197 4 0 5000 0 - - -, f 4;
#X floatatom 542 220 0 0 100 0 - - -;
#X text 555 195 crossover frequency \, Hz.;
#X text 578 222 HF damping \, percent;
#X obj 235 233 rev3~ 100 90 3000 20;
#X obj 247 331 *~;
#X floatatom 317 299 5 0 0 0 - - -, f 5;
#X obj 26 288 *~;
#X floatatom 66 261 5 0 0 0 - - -, f 5;
#X text 355 299 wet reverb signal;
#X text 103 264 "dry" signal;
#X floatatom 410 59 5 0 0 0 - - -, f 5;
#X obj 82 215 expr 1 - $f1;
#X obj 340 3 loadbang;
#X msg 340 33 0;
#X obj 409 32 receive reverbWetDry_health;
#X connect 0 0 13 0;
#X connect 0 0 10 0;
#X connect 2 0 10 2;
#X connect 4 0 10 3;
#X connect 6 0 10 4;
#X connect 7 0 10 5;
#X connect 10 0 11 0;
#X connect 10 1 11 0;
#X connect 10 2 11 0;
#X connect 10 3 11 0;
#X connect 11 0 1 0;
#X connect 12 0 11 1;
#X connect 13 0 1 0;
#X connect 14 0 13 1;
#X connect 17 0 12 0;
#X connect 17 0 18 0;
#X connect 18 0 14 0;
#X connect 19 0 20 0;
#X connect 20 0 17 0;
#X connect 21 0 17 0;
#X restore 329 1443 pd reverb;
#X obj 427 1450 hsl 128 15 0 1 0 1 reverbWetDry_health reverbWetDry_health
Reverb:_Dry_---_Wet -2 -8 0 10 #fcfcfc #000000 #000000 1350 1;
#X obj 712 991 hsl 128 15 0 1 0 0 lopGain_health lopGain_health LowPass_Gain
-2 -8 0 10 #fcfcfc #000000 #000000 0 1;
#X obj 569 988 hsl 128 15 50 4000 0 0 lopFreq_health lopFreq_health
LowPass_Frequency -2 -8 0 10 #fcfcfc #000000 #000000 0 1;
#X obj 712 1034 hsl 128 15 0 1 0 1 bpGain_health bpGain_health BandPass_Gain
-2 -8 0 10 #fcfcfc #000000 #000000 12700 1;
#X obj 569 1029 hsl 128 15 1000 4000 0 1 bpFreq_health bpFreq_health
BandPass_Frequency -2 -8 0 10 #fcfcfc #000000 #000000 4450 1;
#X obj 712 1078 hsl 128 15 0 1 0 1 hpGain_health hpGain_health HighPass_Gain
-2 -8 0 10 #fcfcfc #000000 #000000 12700 1;
#X obj 564 1073 hsl 128 15 1000 4000 0 1 hpFreq_health hpFreq_health
HighPass_Frequency -2 -8 0 10 #fcfcfc #000000 #000000 2400 1;
#X obj 425 157 s oscpitch1;
#X floatatom 425 130 5 0 0 0 - - -, f 5;
#X floatatom 424 180 5 0 0 0 - - -, f 5;
#X obj 424 207 s oscpitch2;
#X floatatom 423 230 5 0 0 0 - - -, f 5;
#X obj 423 257 s oscpitch3;
#X obj 336 1354 *~;
#X floatatom 495 1295 5 0 0 0 - - -, f 5;
#X floatatom 472 1270 5 0 0 0 - - -, f 5;
#X floatatom 460 1239 5 0 0 0 - - -, f 5;
#X floatatom 425 1192 5 0 0 0 - - -, f 5;
#X floatatom 441 1216 5 0 0 0 - - -, f 5;
#X text 463 1190 peak level;
#X text 484 1212 attack duration (ms);
#X text 498 1234 decay duration (ms);
#X text 518 1260 sustain level (% of peak);
#X text 530 1290 release duration (ms);
#N canvas 251 52 707 458 envelope_adsr 0;
#X obj 209 53 moses;
#X obj 112 56 inlet;
#X obj 112 92 sel 0;
#X msg 111 130 stop;
#X obj 209 93 t b b;
#X obj 258 125 t b;
#X obj 174 209 f \$1;
#X obj 174 245 pack 0 \$2;
#X msg 125 245 0;
#X obj 337 145 inlet;
#X obj 377 145 inlet;
#X obj 421 145 inlet;
#X obj 461 145 inlet;
#X obj 314 239 del \$2;
#X obj 314 265 f \$4;
#X obj 390 268 * \$1;
#X obj 389 299 pack 0 \$3;
#X obj 472 301 pack 0 \$5;
#X obj 518 269 inlet;
#X obj 354 358 line~;
#X obj 354 386 outlet~;
#X obj 313 299 * 0.5;
#X connect 0 0 4 0;
#X connect 0 1 5 0;
#X connect 1 0 2 0;
#X connect 2 0 3 0;
#X connect 2 0 17 0;
#X connect 2 1 0 0;
#X connect 3 0 13 0;
#X connect 4 0 5 0;
#X connect 4 1 8 0;
#X connect 5 0 6 0;
#X connect 5 0 13 0;
#X connect 6 0 7 0;
#X connect 7 0 19 0;
#X connect 8 0 19 0;
#X connect 9 0 15 1;
#X connect 9 0 6 1;
#X connect 10 0 13 1;
#X connect 10 0 7 1;
#X connect 11 0 16 1;
#X connect 12 0 14 1;
#X connect 13 0 14 0;
#X connect 14 0 21 0;
#X connect 15 0 16 0;
#X connect 16 0 19 0;
#X connect 17 0 19 0;
#X connect 18 0 17 1;
#X connect 19 0 20 0;
#X connect 21 0 15 0;
#X restore 402 1331 pd envelope_adsr;
#X msg 475 1155 1;
#X msg 603 1159 0.8;
#X obj 548 1130 loadbang;
#X obj 519 1006 tgl 15 1 bypassFilterBank_health bypassFilterBank_health
empty 17 7 0 10 #fcfcfc #000000 #000000 1 1;
#X text 508 982 Bypass;
#X obj 295 163 r pitch;
#X obj 25 291 vsl 15 128 0 127 0 1 empty empty empty 0 -9 0 10 #fcfcfc
#000000 #000000 6600 1;
#X obj 106 1125 s pitch;
#X obj 801 1163 select 32;
#X obj 795 1139 key;
#N canvas 270 86 1178 553 chorus 0;
#X obj 23 259 delwrite~ \$0-delay 1000;
#X obj 221 106 osc~ 0.05;
#X obj 221 131 *~ 10;
#X obj 376 130 *~ 10;
#X obj 221 156 +~ 11;
#X obj 376 155 +~ 21;
#X obj 376 105 osc~ 0.08;
#X obj 511 135 *~ 10;
#X obj 511 110 osc~ 0.13;
#X obj 511 160 +~ 13;
#X obj 694 142 *~ 10;
#X obj 694 167 +~ 55;
#X obj 694 117 osc~ 0.03;
#X obj 839 168 +~ 87;
#X obj 839 118 osc~ 0.015;
#X obj 985 114 osc~ 0.12;
#X obj 985 164 +~ 67;
#X obj 985 139 *~ 5;
#X obj 839 143 *~ 15;
#X obj 221 184 vd~ \$0-delay;
#X obj 376 183 vd~ \$0-delay;
#X obj 511 188 vd~ \$0-delay;
#X obj 694 195 vd~ \$0-delay;
#X obj 839 196 vd~ \$0-delay;
#X obj 985 192 vd~ \$0-delay;
#X obj 61 145 nbx 5 14 -1e+37 1e+37 0 0 empty empty empty 0 -8 0 10
#fcfcfc #000000 #000000 0 256 0;
#X obj 22 92 inlet~;
#X obj 532 418 outlet~;
#X obj 630 416 outlet~;
#X obj 271 269 *~ 0.05;
#X obj 214 270 *~ 0.95;
#X obj 1032 261 *~ 0.95;
#X obj 975 262 *~ 0.05;
#X obj 884 262 *~ 0.85;
#X obj 368 266 *~ 0.85;
#X obj 498 267 *~ 0.7;
#X obj 744 263 *~ 0.7;
#X obj 827 263 *~ 0.15;
#X obj 687 264 *~ 0.3;
#X obj 555 266 *~ 0.3;
#X obj 425 265 *~ 0.15;
#X obj 222 221 /~ 6;
#X obj 375 224 /~ 6;
#X obj 512 221 /~ 6;
#X obj 696 226 /~ 6;
#X obj 841 224 /~ 6;
#X obj 988 225 /~ 6;
#X obj 23 172 *~ 1;
#X connect 1 0 2 0;
#X connect 2 0 4 0;
#X connect 3 0 5 0;
#X connect 4 0 19 0;
#X connect 5 0 20 0;
#X connect 6 0 3 0;
#X connect 7 0 9 0;
#X connect 8 0 7 0;
#X connect 9 0 21 0;
#X connect 10 0 11 0;
#X connect 11 0 22 0;
#X connect 12 0 10 0;
#X connect 13 0 23 0;
#X connect 14 0 18 0;
#X connect 15 0 17 0;
#X connect 16 0 24 0;
#X connect 17 0 16 0;
#X connect 18 0 13 0;
#X connect 19 0 41 0;
#X connect 20 0 42 0;
#X connect 21 0 43 0;
#X connect 22 0 44 0;
#X connect 23 0 45 0;
#X connect 24 0 46 0;
#X connect 25 0 47 1;
#X connect 26 0 47 0;
#X connect 29 0 28 0;
#X connect 30 0 27 0;
#X connect 31 0 28 0;
#X connect 32 0 27 0;
#X connect 33 0 28 0;
#X connect 34 0 27 0;
#X connect 35 0 27 0;
#X connect 36 0 28 0;
#X connect 37 0 27 0;
#X connect 38 0 27 0;
#X connect 39 0 28 0;
#X connect 40 0 28 0;
#X connect 41 0 30 0;
#X connect 41 0 29 0;
#X connect 42 0 34 0;
#X connect 42 0 40 0;
#X connect 43 0 35 0;
#X connect 43 0 39 0;
#X connect 44 0 36 0;
#X connect 44 0 38 0;
#X connect 45 0 33 0;
#X connect 45 0 37 0;
#X connect 46 0 31 0;
#X connect 46 0 32 0;
#X connect 47 0 0 0;
#X restore 295 838 pd chorus;
#N canvas 124 135 364 640 flanger 0;
#X obj 75 208 +~ 1;
#X obj 75 235 *~ 0.5;
#X text 73 108 Low Frequency Oscillator;
#X text 203 263 Depth (ms);
#X obj 74 513 *~ 1;
#X text 87 546 y[n] = x[n] + ax[n-t];
#X text 163 487 Feedback (0-1);
#X obj 75 181 osc~ 1;
#X text 117 513 ax[n-t];
#X text 131 156 Rate (Hz);
#X obj 45 545 +~, f 4;
#X obj 75 159 nbx 5 14 -1e+37 1e+37 0 0 empty \$0-rate empty 0 -8 0
10 #fcfcfc #000000 #000000 1.87008 256 0;
#X obj 144 267 nbx 5 14 0 1e+37 0 0 empty \$0-depth empty 0 -8 0 10
#fcfcfc #000000 #000000 0.244094 256 0;
#X obj 147 356 nbx 5 14 0 1e+37 0 0 empty \$0-shift empty 0 -8 0 10
#fcfcfc #000000 #000000 0.393701 256 0;
#X obj 103 489 nbx 5 14 0 1 0 0 empty \$0-feedback empty 0 -8 0 10
#fcfcfc #000000 #000000 0 256 0;
#X obj 75 294 *~ 1, f 9;
#X obj 74 377 +~ 0.001, f 11;
#X obj 51 18 inlet~;
#X obj 46 606 outlet~;
#X obj 75 132 receive flangerRate_health;
#X obj 79 63 delwrite~ \$0-delay1_health 5000;
#X obj 144 239 receive flangerDepth_health;
#X obj 147 327 receive flangerShift_health;
#X obj 105 455 receive flangerFeedback_health;
#X obj 74 417 vd~ \$0-delay1_health, f 21;
#X connect 0 0 1 0;
#X connect 1 0 15 0;
#X connect 4 0 10 1;
#X connect 7 0 0 0;
#X connect 10 0 18 0;
#X connect 11 0 7 0;
#X connect 12 0 15 1;
#X connect 13 0 16 1;
#X connect 14 0 4 1;
#X connect 15 0 16 0;
#X connect 16 0 24 0;
#X connect 17 0 10 0;
#X connect 17 0 20 0;
#X connect 19 0 11 0;
#X connect 21 0 12 0;
#X connect 22 0 13 0;
#X connect 23 0 14 0;
#X connect 24 0 4 0;
#X restore 316 508 pd flanger;
#N canvas 70 339 943 470 xpand 0;
#X obj 381 16 inlet~;
#X obj 482 17 inlet~;
#X obj 484 370 outlet~;
#X obj 384 369 outlet~;
#X obj 446 140 +~;
#X obj 441 179 /~ 2;
#X obj 391 135 -~;
#X obj 513 140 -~;
#X obj 389 261 *~ 0;
#X obj 489 256 *~ 0;
#X floatatom 599 144 5 0 0 0 - - -, f 5;
#X obj 385 178 /~ 2;
#X obj 513 177 /~ 2;
#X obj 600 120 receive xpandAmount_health;
#X connect 0 0 6 0;
#X connect 0 0 4 0;
#X connect 0 0 7 1;
#X connect 1 0 6 1;
#X connect 1 0 4 1;
#X connect 1 0 7 0;
#X connect 4 0 5 0;
#X connect 5 0 3 0;
#X connect 5 0 2 0;
#X connect 6 0 11 0;
#X connect 7 0 12 0;
#X connect 8 0 3 0;
#X connect 9 0 2 0;
#X connect 10 0 9 1;
#X connect 10 0 8 1;
#X connect 11 0 8 0;
#X connect 12 0 9 0;
#X connect 13 0 10 0;
#X restore 295 915 pd xpand;
#X obj 383 920 hsl 128 15 0 5 0 0 xpandAmount_health xpandAmount_health
Xpand:_Amount -2 -8 0 10 #fcfcfc #000000 #000000 0 1;
#N canvas 62 84 2560 1304 filterbank 0;
#X obj 195 311 *~;
#X floatatom 210 283 5 0 0 0 - - -, f 5;
#X floatatom 384 152 5 0 0 0 - - -, f 5;
#X floatatom 245 142 5 0 0 0 - - -, f 5;
#X floatatom 586 148 5 0 0 0 - - -, f 5;
#X obj 360 321 *~;
#X floatatom 377 297 5 0 0 0 - - -, f 5;
#X obj 540 310 *~;
#X floatatom 557 286 5 0 0 0 - - -, f 5;
#X obj 360 71 inlet~;
#X obj 86 522 outlet~;
#X obj 195 172 lop~ 50;
#X obj 542 175 hip~ 1000;
#X obj 34 210 *~;
#X floatatom 54 165 5 0 0 0 - - -, f 5;
#X text 91 167 "dry" signal;
#X obj 56 136 expr 1 - $f1;
#X obj 203 449 *~;
#X floatatom 232 402 5 0 0 0 - - -, f 5;
#X obj 43 55 loadbang;
#X msg 44 81 0;
#X obj 357 186 bp~ 1000 10;
#X obj 73 88 r bypassFilterBank_health;
#X obj 247 113 receive lopFreq_health;
#X obj 385 115 receive bpFreq_health;
#X obj 586 122 receive hpFreq_health;
#X obj 558 258 receive hpGain_health;
#X obj 376 268 receive bpGain_health;
#X obj 211 254 receive lopGain_health;
#X connect 0 0 17 0;
#X connect 1 0 0 1;
#X connect 2 0 21 1;
#X connect 3 0 11 1;
#X connect 4 0 12 1;
#X connect 5 0 17 0;
#X connect 6 0 5 1;
#X connect 7 0 17 0;
#X connect 8 0 7 1;
#X connect 9 0 11 0;
#X connect 9 0 12 0;
#X connect 9 0 13 0;
#X connect 9 0 21 0;
#X connect 11 0 0 0;
#X connect 12 0 7 0;
#X connect 13 0 10 0;
#X connect 14 0 13 1;
#X connect 16 0 14 0;
#X connect 17 0 10 0;
#X connect 18 0 17 1;
#X connect 19 0 20 0;
#X connect 20 0 16 0;
#X connect 21 0 5 0;
#X connect 22 0 16 0;
#X connect 22 0 18 0;
#X connect 23 0 3 0;
#X connect 24 0 2 0;
#X connect 25 0 4 0;
#X connect 26 0 8 0;
#X connect 27 0 6 0;
#X connect 28 0 1 0;
#X restore 223 1004 pd filterbank;
#X obj 258 1356 *~;
#N canvas 940 295 740 505 reverb 0;
#X obj 162 49 inlet~;
#X obj 144 364 outlet~;
#X floatatom 444 156 0 0 120 0 - - -;
#X text 485 156 level \, dB;
#X floatatom 472 173 0 0 100 0 - - -;
#X text 513 173 liveness \, 0-100;
#X floatatom 507 197 4 0 5000 0 - - -, f 4;
#X floatatom 542 220 0 0 100 0 - - -;
#X text 555 195 crossover frequency \, Hz.;
#X text 578 222 HF damping \, percent;
#X obj 235 233 rev3~ 100 90 3000 20;
#X obj 247 331 *~;
#X floatatom 317 299 5 0 0 0 - - -, f 5;
#X obj 26 288 *~;
#X floatatom 66 261 5 0 0 0 - - -, f 5;
#X text 355 299 wet reverb signal;
#X text 103 264 "dry" signal;
#X floatatom 410 59 5 0 0 0 - - -, f 5;
#X obj 82 215 expr 1 - $f1;
#X obj 340 3 loadbang;
#X msg 340 33 0;
#X obj 409 32 receive reverbWetDry_health;
#X connect 0 0 13 0;
#X connect 0 0 10 0;
#X connect 2 0 10 2;
#X connect 4 0 10 3;
#X connect 6 0 10 4;
#X connect 7 0 10 5;
#X connect 10 0 11 0;
#X connect 10 1 11 0;
#X connect 10 2 11 0;
#X connect 10 3 11 0;
#X connect 11 0 1 0;
#X connect 12 0 11 1;
#X connect 13 0 1 0;
#X connect 14 0 13 1;
#X connect 17 0 12 0;
#X connect 17 0 18 0;
#X connect 18 0 14 0;
#X connect 19 0 20 0;
#X connect 20 0 17 0;
#X connect 21 0 17 0;
#X restore 242 1444 pd reverb;
#N canvas 182 60 330 215 masterGain 0;
#X obj 84 126 *~;
#X floatatom 104 102 5 0 0 0 - - -, f 5;
#X obj 56 28 inlet~;
#X obj 76 191 outlet~;
#X obj 110 70 receive mastergain1_health;
#X connect 0 0 3 0;
#X connect 1 0 0 1;
#X connect 2 0 0 0;
#X connect 4 0 1 0;
#X restore 219 1552 pd masterGain;
#X obj 411 530 hsl 128 15 0 1 0 1 flangerShift_health flangerShift_health
Flanger:_Shift -2 -8 0 10 #fcfcfc #000000 #000000 5000 1;
#X obj 408 493 hsl 128 15 0 1 0 1 flangerDepth_health flangerDepth_health
Flanger:_Depth -2 -8 0 10 #fcfcfc #000000 #000000 3100 1;
#X obj 411 572 hsl 128 15 0 1 0 0 flangerFeedback_health flangerFeedback_health
Flanger:_Feedback -2 -8 0 10 #fcfcfc #000000 #000000 0 1;
#X obj 407 458 hsl 128 15 0 5 0 1 flangerRate_health flangerRate_health
Flanger:_Rate -2 -8 0 10 #fcfcfc #000000 #000000 4750 1;
#N canvas 81 165 504 767 phasor 0;
#X obj 113 164 +~ 1;
#X obj 113 191 *~ 0.5;
#X text 110 70 Low Frequency Oscillator;
#X text 199 487 x[n-t];
#X text 188 365 t (ms);
#X text 241 219 Depth (ms);
#X text 48 527 x[n];
#X obj 113 561 *~ 1;
#X text 126 600 y[n] = x[n] + ax[n-t];
#X text 228 537 Feedback (0-1);
#X obj 113 137 osc~ 1;
#X text 156 561 ax[n-t];
#X text 169 112 Rate (Hz);
#X text 240 304 Shift (ms);
#X obj 84 599 +~, f 4;
#X obj 113 115 nbx 5 14 -1e+37 1e+37 0 0 empty \$0-rate empty 0 -8
0 10 #fcfcfc #000000 #000000 0 256 0;
#X obj 182 223 nbx 5 14 0 1e+37 0 0 empty \$0-depth empty 0 -8 0 10
#fcfcfc #000000 #000000 0 256 0;
#X obj 180 308 nbx 5 14 0 1e+37 0 0 empty \$0-shift empty 0 -8 0 10
#fcfcfc #000000 #000000 0.511811 256 0;
#X obj 168 539 nbx 5 14 0 1 0 0 empty \$0-feedback empty 0 -8 0 10
#fcfcfc #000000 #000000 1 256 0;
#N canvas 1401 348 622 635 apset~ 0;
#N canvas 0 22 450 300 ap~ 0;
#X obj 127 160 rpole~;
#X obj 127 135 rzero_rev~;
#X obj 127 92 inlet~;
#X obj 127 185 outlet~;
#X obj 204 92 inlet~;
#X connect 0 0 3 0;
#X connect 1 0 0 0;
#X connect 2 0 1 0;
#X connect 4 0 1 1;
#X connect 4 0 0 1;
#X restore 155 36 pd ap~;
#N canvas 0 22 450 300 ap~ 0;
#X obj 127 160 rpole~;
#X obj 127 135 rzero_rev~;
#X obj 127 92 inlet~;
#X obj 127 185 outlet~;
#X obj 204 92 inlet~;
#X connect 0 0 3 0;
#X connect 1 0 0 0;
#X connect 2 0 1 0;
#X connect 4 0 1 1;
#X connect 4 0 0 1;
#X restore 155 66 pd ap~;
#N canvas 0 22 450 300 ap~ 0;
#X obj 127 160 rpole~;
#X obj 127 135 rzero_rev~;
#X obj 127 92 inlet~;
#X obj 127 185 outlet~;
#X obj 204 92 inlet~;
#X connect 0 0 3 0;
#X connect 1 0 0 0;
#X connect 2 0 1 0;
#X connect 4 0 1 1;
#X connect 4 0 0 1;
#X restore 155 96 pd ap~;
#N canvas 0 22 450 300 ap~ 0;
#X obj 127 160 rpole~;
#X obj 127 135 rzero_rev~;
#X obj 127 92 inlet~;
#X obj 127 185 outlet~;
#X obj 204 92 inlet~;
#X connect 0 0 3 0;
#X connect 1 0 0 0;
#X connect 2 0 1 0;
#X connect 4 0 1 1;
#X connect 4 0 0 1;
#X restore 155 126 pd ap~;
#N canvas 0 22 450 300 ap~ 0;
#X obj 127 160 rpole~;
#X obj 127 135 rzero_rev~;
#X obj 127 92 inlet~;
#X obj 127 185 outlet~;
#X obj 204 92 inlet~;
#X connect 0 0 3 0;
#X connect 1 0 0 0;
#X connect 2 0 1 0;
#X connect 4 0 1 1;
#X connect 4 0 0 1;
#X restore 155 156 pd ap~;
#N canvas 0 22 450 300 ap~ 0;
#X obj 127 160 rpole~;
#X obj 127 135 rzero_rev~;
#X obj 127 92 inlet~;
#X obj 127 185 outlet~;
#X obj 204 92 inlet~;
#X connect 0 0 3 0;
#X connect 1 0 0 0;
#X connect 2 0 1 0;
#X connect 4 0 1 1;
#X connect 4 0 0 1;
#X restore 155 186 pd ap~;
#N canvas 0 22 450 300 ap~ 0;
#X obj 127 160 rpole~;
#X obj 127 135 rzero_rev~;
#X obj 127 92 inlet~;
#X obj 127 185 outlet~;
#X obj 204 92 inlet~;
#X connect 0 0 3 0;
#X connect 1 0 0 0;
#X connect 2 0 1 0;
#X connect 4 0 1 1;
#X connect 4 0 0 1;
#X restore 155 216 pd ap~;
#N canvas 0 22 450 300 ap~ 0;
#X obj 127 160 rpole~;
#X obj 127 135 rzero_rev~;
#X obj 127 92 inlet~;
#X obj 127 185 outlet~;
#X obj 204 92 inlet~;
#X connect 0 0 3 0;
#X connect 1 0 0 0;
#X connect 2 0 1 0;
#X connect 4 0 1 1;
#X connect 4 0 0 1;
#X restore 155 246 pd ap~;
#N canvas 0 22 450 300 ap~ 0;
#X obj 127 160 rpole~;
#X obj 127 135 rzero_rev~;
#X obj 127 92 inlet~;
#X obj 127 185 outlet~;
#X obj 204 92 inlet~;
#X connect 0 0 3 0;
#X connect 1 0 0 0;
#X connect 2 0 1 0;
#X connect 4 0 1 1;
#X connect 4 0 0 1;
#X restore 155 276 pd ap~;
#N canvas 0 22 450 300 ap~ 0;
#X obj 127 160 rpole~;
#X obj 127 135 rzero_rev~;
#X obj 127 92 inlet~;
#X obj 127 185 outlet~;
#X obj 204 92 inlet~;
#X connect 0 0 3 0;
#X connect 1 0 0 0;
#X connect 2 0 1 0;
#X connect 4 0 1 1;
#X connect 4 0 0 1;
#X restore 155 306 pd ap~;
#N canvas 0 22 450 300 ap~ 0;
#X obj 127 160 rpole~;
#X obj 127 135 rzero_rev~;
#X obj 127 92 inlet~;
#X obj 127 185 outlet~;
#X obj 204 92 inlet~;
#X connect 0 0 3 0;
#X connect 1 0 0 0;
#X connect 2 0 1 0;
#X connect 4 0 1 1;
#X connect 4 0 0 1;
#X restore 155 336 pd ap~;
#N canvas 0 22 450 300 ap~ 0;
#X obj 127 160 rpole~;
#X obj 127 135 rzero_rev~;
#X obj 127 92 inlet~;
#X obj 127 185 outlet~;
#X obj 204 92 inlet~;
#X connect 0 0 3 0;
#X connect 1 0 0 0;
#X connect 2 0 1 0;
#X connect 4 0 1 1;
#X connect 4 0 0 1;
#X restore 155 366 pd ap~;
#N canvas 0 22 450 300 ap~ 0;
#X obj 127 160 rpole~;
#X obj 127 135 rzero_rev~;
#X obj 127 92 inlet~;
#X obj 127 185 outlet~;
#X obj 204 92 inlet~;
#X connect 0 0 3 0;
#X connect 1 0 0 0;
#X connect 2 0 1 0;
#X connect 4 0 1 1;
#X connect 4 0 0 1;
#X restore 155 396 pd ap~;
#N canvas 0 22 450 300 ap~ 0;
#X obj 127 160 rpole~;
#X obj 127 135 rzero_rev~;
#X obj 127 92 inlet~;
#X obj 127 185 outlet~;
#X obj 204 92 inlet~;
#X connect 0 0 3 0;
#X connect 1 0 0 0;
#X connect 2 0 1 0;
#X connect 4 0 1 1;
#X connect 4 0 0 1;
#X restore 155 426 pd ap~;
#N canvas 0 22 450 300 ap~ 0;
#X obj 127 160 rpole~;
#X obj 127 135 rzero_rev~;
#X obj 127 92 inlet~;
#X obj 127 185 outlet~;
#X obj 204 92 inlet~;
#X connect 0 0 3 0;
#X connect 1 0 0 0;
#X connect 2 0 1 0;
#X connect 4 0 1 1;
#X connect 4 0 0 1;
#X restore 155 456 pd ap~;
#N canvas 0 22 450 300 ap~ 0;
#X obj 127 160 rpole~;
#X obj 127 135 rzero_rev~;
#X obj 127 92 inlet~;
#X obj 127 185 outlet~;
#X obj 204 92 inlet~;
#X connect 0 0 3 0;
#X connect 1 0 0 0;
#X connect 2 0 1 0;
#X connect 4 0 1 1;
#X connect 4 0 0 1;
#X restore 155 486 pd ap~;
#X obj 155 6 inlet~;
#X obj 225 6 inlet~;
#X obj 155 511 outlet~;
#X connect 0 0 1 0;
#X connect 1 0 2 0;
#X connect 2 0 3 0;
#X connect 3 0 4 0;
#X connect 4 0 5 0;
#X connect 5 0 6 0;
#X connect 6 0 7 0;
#X connect 7 0 8 0;
#X connect 8 0 9 0;
#X connect 9 0 10 0;
#X connect 10 0 11 0;
#X connect 11 0 12 0;
#X connect 12 0 13 0;
#X connect 13 0 14 0;
#X connect 14 0 15 0;
#X connect 15 0 18 0;
#X connect 16 0 0 0;
#X connect 17 0 0 1;
#X connect 17 0 1 1;
#X connect 17 0 2 1;
#X connect 17 0 3 1;
#X connect 17 0 4 1;
#X connect 17 0 5 1;
#X connect 17 0 6 1;
#X connect 17 0 7 1;
#X connect 17 0 8 1;
#X connect 17 0 9 1;
#X connect 17 0 10 1;
#X connect 17 0 11 1;
#X connect 17 0 12 1;
#X connect 17 0 13 1;
#X connect 17 0 14 1;
#X connect 17 0 15 1;
#X restore 113 488 pd apset~;
#X obj 113 250 *~ 0.3, f 9;
#X obj 114 330 +~ 0.6, f 11;
#X obj 181 464 clip~ 0 1;
#X obj 67 37 inlet~;
#X obj 82 672 outlet~;
#X obj 114 91 receive phasorRate_health;
#X obj 185 197 receive phasorDepth_health;
#X obj 182 281 receive phasorShift_health;
#X obj 168 515 receive phasorFeedback_health;
#X connect 0 0 1 0;
#X connect 1 0 20 0;
#X connect 7 0 14 1;
#X connect 10 0 0 0;
#X connect 14 0 24 0;
#X connect 15 0 10 0;
#X connect 16 0 20 1;
#X connect 17 0 21 1;
#X connect 18 0 7 1;
#X connect 19 0 7 0;
#X connect 20 0 21 0;
#X connect 21 0 22 0;
#X connect 22 0 19 1;
#X connect 23 0 14 0;
#X connect 23 0 19 0;
#X connect 25 0 15 0;
#X connect 26 0 16 0;
#X connect 27 0 17 0;
#X connect 28 0 18 0;
#X restore 310 716 pd phasor;
#X obj 406 735 hsl 128 15 0 1 0 1 phasorShift_health phasorShift_health
Phasor:_Shift -2 -8 0 10 #fcfcfc #000000 #000000 6500 1;
#X obj 403 698 hsl 128 15 0 1 0 1 phasorDepth_health phasorDepth_health
Phasor:_Depth -2 -8 0 10 #fcfcfc #000000 #000000 0 1;
#X obj 406 777 hsl 128 15 0 1 0 1 phasorFeedback_health phasorFeedback_health
Phasor:_Feedback -2 -8 0 10 #fcfcfc #000000 #000000 12700 1;
#X obj 402 663 hsl 128 15 0 5 0 1 phasorRate_health phasorRate_health
Phasor:_Rate -2 -8 0 10 #fcfcfc #000000 #000000 0 1;
#X floatatom 873 1369 5 0 0 0 - - -, f 5;
#X obj 782 1291 line;
#X obj 629 1329 tgl 19 0 empty empty empty 0 -10 0 12 #fcfcfc #000000
#000000 0 100;
#X obj 467 67 loadbang;
#X floatatom 450 98 5 0 0 0 - - -, f 5;
#X text 128 22 Instructions;
#X text 128 37 Enable dsp;
#X text 128 52 Press spacebar to enable play sound;
#X msg 515 1156 200;
#X msg 549 1163 175;
#X msg 573 1163 330;
#X obj 1036 991 tgl 19 0 empty empty empty 0 -10 0 12 #fcfcfc #000000
#000000 0 100;
#X obj 1095 978 print;
#X obj 190 641 f;
#X floatatom 974 1445 5 0 0 0 - - -, f 5;
#X obj 959 1254 bng 19 250 50 0 empty empty empty 0 -10 0 12 #fcfcfc
#000000 #000000;
#X obj 874 1391 sel 1;
#X obj 1063 1523 print;
#X obj 1104 1188 loadbang;
#X obj 1002 892 r health;
#X msg 1046 1255 0;
#X obj 1066 1342 + 1;
#X obj 817 1455 sel 0 1 2 3;
#X obj 1040 1396 sel 4;
#X obj 975 1331 f;
#X msg 830 1246 0 \, 1 400;
#X obj 975 1216 metro 100;
#X obj 13 119 bubblesound 220;
#X obj 18 149 bubblesound 329;
#X obj 22 179 bubblesound 440;
#X obj 26 206 bubblesound 554;
#X obj 18 235 bubblesound 712;
#X connect 0 0 1 0;
#X connect 6 0 7 1;
#X connect 10 0 50 0;
#X connect 12 0 27 0;
#X connect 13 0 6 0;
#X connect 22 0 21 0;
#X connect 23 0 24 0;
#X connect 25 0 26 0;
#X connect 27 0 13 0;
#X connect 28 0 38 5;
#X connect 29 0 38 4;
#X connect 30 0 38 3;
#X connect 31 0 38 1;
#X connect 32 0 38 2;
#X connect 38 0 27 1;
#X connect 38 0 54 1;
#X connect 39 0 31 0;
#X connect 40 0 29 0;
#X connect 41 0 39 0;
#X connect 41 0 74 0;
#X connect 41 0 40 0;
#X connect 41 0 75 0;
#X connect 41 0 76 0;
#X connect 47 0 91 0;
#X connect 47 0 68 0;
#X connect 48 0 47 0;
#X connect 49 0 51 0;
#X connect 49 1 51 1;
#X connect 50 0 61 0;
#X connect 51 0 53 0;
#X connect 51 1 12 0;
#X connect 53 0 54 0;
#X connect 54 0 55 0;
#X connect 55 0 56 0;
#X connect 56 0 7 0;
#X connect 61 0 49 0;
#X connect 66 0 82 0;
#X connect 67 0 66 0;
#X connect 68 0 38 0;
#X connect 68 0 92 0;
#X connect 69 0 70 0;
#X connect 70 0 22 0;
#X connect 74 0 32 0;
#X connect 75 0 30 0;
#X connect 76 0 28 0;
#X connect 80 0 83 0;
#X connect 80 0 88 0;
#X connect 81 0 90 0;
#X connect 82 0 68 0;
#X connect 84 0 86 0;
#X connect 85 0 77 0;
#X connect 85 0 78 0;
#X connect 85 0 91 0;
#X connect 85 0 68 0;
#X connect 86 0 90 1;
#X connect 87 0 90 1;
#X connect 88 0 93 0;
#X connect 88 1 94 0;
#X connect 88 2 95 0;
#X connect 88 3 96 0;
#X connect 88 4 97 0;
#X connect 89 0 86 0;
#X connect 90 0 80 0;
#X connect 90 0 87 0;
#X connect 90 0 89 0;
#X connect 91 0 67 0;
#X connect 92 0 81 0;
#X connect 93 0 10 0;
#X connect 94 0 10 0;
#X connect 95 0 10 0;
#X connect 96 0 10 0;
#X connect 97 0 10 0;
