#N canvas 0 0 3424 1332 10;
#X obj 92 -515 tgl 15 0 empty empty empty 17 7 0 10 #fcfcfc #000000
#000000 0 1;
#X msg 92 -490 \; pd dsp \$1;
#X obj 1050 875 soundfiler;
#X obj 1159 630 bng 15 250 50 0 empty empty empty 17 7 0 10 #fcfcfc
#000000 #000000;
#X obj 1159 603 loadbang;
#X msg 460 700 0, f 4;
#N canvas 212 36 450 300 (subpatch) 0;
#X array Percussion 769745 float 0 black black;
#X coords 0 1 769744 -1 300 100 1;
#X restore 1150 880 graph;
#X obj 299 719 bng 15 250 50 0 empty empty empty 17 7 0 10 #fcfcfc
#000000 #000000;
#X floatatom 1050 899 15 0 0 0 - - -, f 15;
#X msg 500 700 stop;
#X obj 1050 925 / 44100;
#X obj 1049 954 * 1000;
#X floatatom 1049 980 5 0 0 0 - - -, f 5;
#X obj 1050 1010 s loopTime;
#X obj 314 672 metro 1000;
#X obj 372 624 r loopTime;
#X obj 314 638 tgl 15 0 empty empty empty 17 7 0 10 #fcfcfc #000000
#000000 0 1;
#X floatatom 371 648 5 0 0 0 - - -, f 5;
#N canvas 52 386 661 298 delayLine 0;
#X obj 36 147 delwrite~ del_line 2000;
#X obj 323 121 delread4~ del_line;
#X floatatom 323 92 5 0 0 0 - - -, f 5;
#X obj 308 151 +~;
#X obj 172 36 inlet~;
#X obj 352 262 outlet~;
#X obj 323 61 receive delayTime;
#X obj 170 195 receive delayFeedback;
#X obj 155 256 *~;
#X floatatom 170 219 5 0 0 0 - - -, f 5;
#X connect 1 0 3 1;
#X connect 2 0 1 0;
#X connect 3 0 5 0;
#X connect 3 0 8 0;
#X connect 4 0 0 0;
#X connect 4 0 3 0;
#X connect 6 0 2 0;
#X connect 7 0 9 0;
#X connect 8 0 0 0;
#X connect 9 0 8 1;
#X restore 320 1000 pd delayLine;
#N canvas 1010 484 523 364 distortion 0;
#X obj 147 32 inlet~;
#X obj 152 238 outlet~;
#X obj 176 161 expr~ tanh($v1);
#X floatatom 234 87 5 0 0 0 - - -, f 5;
#X obj 176 137 *~;
#X text 275 72 Distortion Amount;
#X obj 245 49 receive distortionAmnt;
#X connect 0 0 4 0;
#X connect 2 0 1 0;
#X connect 3 0 4 1;
#X connect 4 0 2 0;
#X connect 6 0 3 0;
#X restore 319 1066 pd distortion;
#N canvas 1342 413 740 505 reverb 0;
#X obj 162 49 inlet~;
#X obj 144 364 outlet~;
#X floatatom 444 156 0 0 120 0 - - -;
#X text 485 156 level \, dB;
#X floatatom 472 173 0 0 100 0 - - -;
#X text 513 173 liveness \, 0-100;
#X floatatom 507 197 4 0 5000 0 - - -, f 4;
#X floatatom 542 220 0 0 100 0 - - -;
#X text 555 195 crossover frequency \, Hz.;
#X text 578 222 HF damping \, percent;
#X obj 235 233 rev3~ 100 90 3000 20;
#X obj 247 331 *~;
#X floatatom 317 299 5 0 0 0 - - -, f 5;
#X obj 26 288 *~;
#X floatatom 66 261 5 0 0 0 - - -, f 5;
#X text 355 299 wet reverb signal;
#X text 103 264 "dry" signal;
#X obj 409 32 receive reverbWetDry;
#X floatatom 410 59 5 0 0 0 - - -, f 5;
#X obj 250 87 expr 1 - $f1;
#X connect 0 0 13 0;
#X connect 0 0 10 0;
#X connect 2 0 10 2;
#X connect 4 0 10 3;
#X connect 6 0 10 4;
#X connect 7 0 10 5;
#X connect 10 0 11 0;
#X connect 10 1 11 0;
#X connect 10 2 11 0;
#X connect 10 3 11 0;
#X connect 11 0 1 0;
#X connect 12 0 11 1;
#X connect 13 0 1 0;
#X connect 14 0 13 1;
#X connect 17 0 18 0;
#X connect 18 0 12 0;
#X connect 18 0 19 0;
#X connect 19 0 14 0;
#X restore 320 1190 pd reverb;
#X obj 310 1410 dac~;
#X obj 986 1512 hsl 128 15 0 1 0 0 delayFeedback delayFeedback Delay_Feedback
-2 -8 0 10 #fcfcfc #000000 #000000 0 1;
#X obj 890 1350 hsl 128 15 0 1 0 0 reverbWetDry reverbWetDry Reverb_Wet/Dry
-2 -8 0 10 #fcfcfc #000000 #000000 0 1;
#X obj 890 1420 hsl 128 15 0 4 0 0 distortionAmnt distortionAmnt Distortion_Amount
-2 -8 0 10 #fcfcfc #000000 #000000 0 1;
#X obj 840 1510 hsl 128 15 0 10 0 0 delayTime delayTime Delay_Time
-2 -8 0 10 #fcfcfc #000000 #000000 0 1;
#N canvas 1096 666 450 300 masterGain 0;
#X obj 120 47 *~;
#X floatatom 140 23 5 0 0 0 - - -, f 5;
#X obj 142 -6 receive mastergain;
#X obj 92 -51 inlet~;
#X obj 112 112 outlet~;
#X connect 0 0 4 0;
#X connect 1 0 0 1;
#X connect 2 0 1 0;
#X connect 3 0 0 0;
#X restore 310 1300 pd masterGain;
#X obj 480 1340 hsl 128 15 0 3 0 1 mastergain mastergain Master_Gain
-1 -8 0 10 #fcfcfc #000000 #000000 4233 1;
#N canvas 212 36 450 300 (subpatch) 0;
#X array BassGuitar 769745 float 0 black black;
#X coords 0 1 769744 -1 300 100 1;
#X restore 1502 882 graph;
#X msg 1510 660 read -resize BassGuitar.wav BassGuitar;
#X msg 1060 810 read -resize PercussionPart.wav Percussion;
#X obj 310 780 tabplay~ BassGuitar;
#X obj 170 780 tabplay~ Percussion;
#X obj 680 1330 hsl 128 15 0 1 0 1 Percussion Percussion PERCUSSION
-1 -8 0 10 #fcfcfc #000000 #000000 0 1;
#X text 590 1220 Volume Control;
#N canvas 3053 448 450 325 Percussion 0;
#X obj 90 50 *~;
#X floatatom 140 30 5 0 0 0 - - -, f 5;
#X obj 92 -61 inlet~;
#X obj 90 120 outlet~;
#X obj 140 -20 r Percussion;
#X connect 0 0 3 0;
#X connect 1 0 0 1;
#X connect 2 0 0 0;
#X connect 4 0 1 0;
#X restore 170 810 pd Percussion sound;
#N canvas 212 36 450 300 (subpatch) 0;
#X array Lead1 769745 float 0 black black;
#X coords 0 1 769744 -1 300 100 1;
#X restore 1150 988 graph;
#N canvas 212 36 450 300 (subpatch) 0;
#X array Lead2 769745 float 0 black black;
#X coords 0 1 769744 -1 300 100 1;
#X restore 1500 990 graph;
#X msg 1510 690 read -resize Lead1.wav Lead1;
#X msg 1510 720 read -resize Lead2.wav Lead2;
#X obj 460 780 tabplay~ Lead1;
#X obj 610 780 tabplay~ Lead2;
#N canvas 1047 516 450 300 BassGuitar 0;
#X obj 170 155 *~;
#X floatatom 190 131 5 0 0 0 - - -, f 5;
#X obj 142 57 inlet~;
#X obj 162 220 outlet~;
#X obj 192 102 receive BassGuitar;
#X connect 0 0 3 0;
#X connect 1 0 0 1;
#X connect 2 0 0 0;
#X connect 4 0 1 0;
#X restore 310 810 pd BassGuitar sound;
#X obj 680 1290 hsl 128 15 0 1 0 1 BassGuitar BassGuitar BASS\\\ GUITAR
-1 -8 0 10 #fcfcfc #000000 #000000 0 1;
#N canvas 1047 516 450 300 Lead1 0;
#X obj 120 135 *~;
#X floatatom 140 111 5 0 0 0 - - -, f 5;
#X obj 92 37 inlet~;
#X obj 112 200 outlet~;
#X obj 142 82 receive Lead1;
#X connect 0 0 3 0;
#X connect 1 0 0 1;
#X connect 2 0 0 0;
#X connect 4 0 1 0;
#X restore 470 840 pd Lead1 sound;
#X obj 680 1370 hsl 128 15 0 1 0 1 Lead1 Lead1 LEAD\\\ 1 -1 -8 0 10
#fcfcfc #000000 #000000 0 1;
#X obj 680 1410 hsl 128 15 0 1 0 1 Lead2 Lead2 LEAD\\\ 2 -1 -8 0 10
#fcfcfc #000000 #000000 0 1;
#N canvas 1047 516 450 300 Lead2 0;
#X obj 129 145 *~;
#X floatatom 149 121 5 0 0 0 - - -, f 5;
#X obj 101 47 inlet~;
#X obj 121 210 outlet~;
#X obj 150 90 receive Lead2;
#X connect 0 0 3 0;
#X connect 1 0 0 1;
#X connect 2 0 0 0;
#X connect 4 0 1 0;
#X restore 620 840 pd Lead2 sound;
#X obj 1170 670 t b b b b b;
#X text 200 69 creation arguments are OSC address;
#X text 202 30 set message to change OSC address;
#X floatatom 67 -15 5 0 0 0 - - -, f 5;
#N canvas 1431 255 1253 825 oscReceive 0;
#X obj 55 184 netreceive -u -b;
#X msg 78 143 listen 0;
#X text 152 143 stop listening;
#X text 64 58 packets from network;
#X text 173 177 UDP packets \, binary output, f 13;
#X obj 45 314 print;
#X obj 45 272 oscparse;
#X text 150 114 listen on port 8000;
#X obj 177 269 oscparse;
#X obj 177 293 list trim;
#X text 241 267 Parse the OSC message;
#X obj 160 340 route unity;
#X msg 66 115 listen 8000;
#X obj 66 84 loadbang;
#X floatatom 10 490 5 0 0 0 - - -, f 5;
#X obj 10 470 route melee;
#X obj 10 510 s melee;
#X obj 240 470 route checkpoint1;
#X obj 360 470 route checkpoint2;
#X obj 500 470 route checkpoint3;
#X obj 630 470 route checkpoint4;
#X obj 500 500 s Lead1;
#X obj 630 500 s Lead2;
#X obj 240 500 s BassGuitar;
#X obj 360 500 s Percussion;
#X floatatom 109 505 5 0 0 0 - - -, f 5;
#X obj 110 470 route health;
#X obj 111 539 s health;
#X floatatom 769 505 5 0 0 0 - - -, f 5;
#X obj 768 536 s swing;
#X obj 770 470 route swing;
#X connect 0 0 6 0;
#X connect 0 0 8 0;
#X connect 1 0 0 0;
#X connect 6 0 5 0;
#X connect 8 0 9 0;
#X connect 9 0 11 0;
#X connect 11 0 15 0;
#X connect 11 0 17 0;
#X connect 11 0 18 0;
#X connect 11 0 19 0;
#X connect 11 0 20 0;
#X connect 11 0 26 0;
#X connect 11 0 30 0;
#X connect 12 0 0 0;
#X connect 13 0 12 0;
#X connect 14 0 16 0;
#X connect 15 0 14 0;
#X connect 17 0 23 0;
#X connect 18 0 24 0;
#X connect 19 0 21 0;
#X connect 20 0 22 0;
#X connect 25 0 27 0;
#X connect 26 0 25 0;
#X connect 28 0 29 0;
#X connect 30 0 28 0;
#X restore 70 -66 pd oscReceive;
#X obj 67 70 oscformat PD message;
#X msg 97 35 set PD message;
#N canvas 185 216 1293 998 oscSend 0;
#X msg 158 207 disconnect;
#X obj 61 253 netsend -u -b;
#X obj 59 55 list prepend send;
#X obj 59 80 list trim;
#X msg 150 175 connect 127.0.0.1 8001;
#X obj 59 29 r oscOut;
#X text 301 163 send to port 8001;
#X msg 147 148 connect localhost 8001;
#X obj 147 108 loadbang;
#X connect 0 0 1 0;
#X connect 2 0 3 0;
#X connect 3 0 1 0;
#X connect 4 0 1 0;
#X connect 5 0 2 0;
#X connect 7 0 1 0;
#X connect 8 0 7 0;
#X restore 70 -90 pd oscSend;
#X obj 67 105 s oscOut;
#X msg 80 -210 \; pd dsp \$1;
#X obj 80 -410 r activatedsp;
#X obj 80 -300 select 0 1;
#X floatatom 80 -350 5 0 0 0 - - -, f 5;
#X obj 80 -240 tgl 15 0 empty empty empty 17 7 0 10 #fcfcfc #000000
#000000 0 1;
#X text 180 -410 signal to turn on/off DSP from Unity;
#N canvas 816 130 504 454 oscillators 0;
#X obj 206 2 inlet;
#X obj 194 487 outlet~;
#X obj 205 385 *~;
#X obj 342 390 *~;
#X obj 60 380 *~;
#X obj 55 174 +;
#X obj 206 174 +;
#X obj 344 172 +;
#X floatatom 206 28 5 0 0 0 - - -, f 5;
#X obj 54 198 mtof;
#X obj 344 196 mtof;
#X obj 205 199 mtof;
#X floatatom 10 233 5 0 0 0 - - -, f 5;
#X obj 45 134 bng 15 250 50 0 empty empty empty 17 7 0 10 #fcfcfc #000000
#000000;
#X obj 351 141 bng 15 250 50 0 empty empty empty 17 7 0 10 #fcfcfc
#000000 #000000;
#X obj 211 135 bng 15 250 50 0 empty empty empty 17 7 0 10 #fcfcfc
#000000 #000000;
#X obj 341 228 phasor~;
#X obj 341 249 *~ 2;
#X obj 341 270 -~ 1;
#X obj 205 229 phasor~;
#X obj 205 250 *~ 2;
#X obj 205 271 -~ 1;
#X obj 55 227 osc~;
#X obj 70 100 receive oscpitch1_melee;
#X obj 224 107 receive oscpitch2_melee;
#X obj 410 110 receive oscpitch3_melee;
#X obj 50 350 receive oscgain1_melee;
#X obj 224 349 receive oscgain2_melee;
#X obj 410 350 receive oscgain3_melee;
#X connect 0 0 8 0;
#X connect 2 0 1 0;
#X connect 3 0 1 0;
#X connect 4 0 1 0;
#X connect 5 0 9 0;
#X connect 6 0 11 0;
#X connect 7 0 10 0;
#X connect 8 0 6 0;
#X connect 8 0 5 0;
#X connect 8 0 7 0;
#X connect 9 0 12 0;
#X connect 9 0 22 0;
#X connect 10 0 16 0;
#X connect 11 0 19 0;
#X connect 13 0 5 0;
#X connect 14 0 7 0;
#X connect 15 0 6 0;
#X connect 16 0 17 0;
#X connect 17 0 18 0;
#X connect 18 0 3 0;
#X connect 19 0 20 0;
#X connect 20 0 21 0;
#X connect 21 0 2 0;
#X connect 22 0 4 0;
#X connect 23 0 5 1;
#X connect 23 0 13 0;
#X connect 24 0 6 1;
#X connect 24 0 15 0;
#X connect 25 0 7 1;
#X connect 25 0 14 0;
#X connect 26 0 4 1;
#X connect 27 0 2 1;
#X connect 28 0 3 1;
#X restore 2692 -140 pd oscillators;
#X obj 2060 -240 hsl 128 15 0 1 0 1 oscgain2_melee oscgain2_melee Osc_Gain2
-2 -8 0 10 #fcfcfc #000000 #000000 3050 1;
#X obj 2250 50 hsl 128 15 0 1 0 1 mastergain_melee mastergain_melee
Master_Gain -2 -8 0 10 #fcfcfc #000000 #000000 12700 1;
#X obj 2060 -270 hsl 128 15 0 1 0 1 oscgain1_melee oscgain1_melee Osc_Gain1
-2 -8 0 10 #fcfcfc #000000 #000000 2600 1;
#N canvas 183 60 610 513 masterGain 0;
#X obj 84 126 *~;
#X floatatom 104 102 5 0 0 0 - - -, f 5;
#X obj 56 28 inlet~;
#X obj 76 191 outlet~;
#X obj 106 73 receive mastergain_melee;
#X connect 0 0 3 0;
#X connect 1 0 0 1;
#X connect 2 0 0 0;
#X connect 4 0 1 0;
#X restore 2726 347 pd masterGain;
#X obj 2670 405 dac~;
#X obj 2060 -210 hsl 128 15 0 1 0 1 oscgain3_melee oscgain3_melee Osc_Gain3
-2 -8 0 10 #fcfcfc #000000 #000000 3200 1;
#X obj 2059 -132 hsl 128 15 0 1 0 1 distortionWetDry_melee distortionWetDry_melee
Distortion:_Dry_---_Wet -2 -8 0 10 #fcfcfc #000000 #000000 2600 1;
#N canvas 75 124 712 563 distortion 0;
#X obj 147 32 inlet~;
#X obj 206 414 outlet~;
#X obj 233 166 expr~ tanh($v1);
#X floatatom 234 87 5 0 0 0 - - -, f 5;
#X obj 233 142 *~;
#X text 275 72 Distortion Amount;
#X obj 80 244 expr 1 - $f1;
#X obj 29 300 *~;
#X floatatom 69 273 5 0 0 0 - - -, f 5;
#X text 106 276 "dry" signal;
#X obj 299 284 *~;
#X floatatom 326 257 5 0 0 0 - - -, f 5;
#X text 334 285 wet;
#X floatatom 449 174 5 0 0 0 - - -, f 5;
#X obj 392 122 loadbang;
#X msg 392 152 0;
#X obj 245 49 receive distortionAmnt_melee;
#X obj 448 147 receive distortionWetDry_melee;
#X connect 0 0 4 0;
#X connect 0 0 7 0;
#X connect 2 0 10 0;
#X connect 3 0 4 1;
#X connect 4 0 2 0;
#X connect 6 0 8 0;
#X connect 7 0 1 0;
#X connect 8 0 7 1;
#X connect 10 0 1 0;
#X connect 11 0 10 1;
#X connect 13 0 6 0;
#X connect 13 0 11 0;
#X connect 14 0 15 0;
#X connect 15 0 13 0;
#X connect 16 0 3 0;
#X connect 17 0 13 0;
#X restore 2692 -110 pd distortion;
#X obj 2060 -170 hsl 128 15 0.5 6 0 1 distortionAmnt_melee distortionAmnt_melee
Distortion_Amount -2 -8 0 10 #fcfcfc #000000 #000000 12700 1;
#N canvas 78 386 710 599 filterbank 0;
#X obj 195 311 *~;
#X floatatom 210 283 5 0 0 0 - - -, f 5;
#X floatatom 384 152 5 0 0 0 - - -, f 5;
#X floatatom 245 142 5 0 0 0 - - -, f 5;
#X floatatom 586 148 5 0 0 0 - - -, f 5;
#X obj 360 321 *~;
#X floatatom 377 297 5 0 0 0 - - -, f 5;
#X obj 540 310 *~;
#X floatatom 557 286 5 0 0 0 - - -, f 5;
#X obj 360 71 inlet~;
#X obj 86 522 outlet~;
#X obj 195 172 lop~ 50;
#X obj 542 175 hip~ 1000;
#X obj 34 210 *~;
#X floatatom 54 165 5 0 0 0 - - -, f 5;
#X text 91 167 "dry" signal;
#X obj 56 136 expr 1 - $f1;
#X obj 203 449 *~;
#X floatatom 232 402 5 0 0 0 - - -, f 5;
#X obj 43 55 loadbang;
#X msg 44 81 0;
#X obj 357 186 bp~ 1000 10;
#X obj 247 113 receive lopFreq_melee;
#X obj 211 254 receive lopGain_melee;
#X obj 376 268 receive bpGain_melee;
#X obj 385 115 receive bpFreq_melee;
#X obj 586 122 receive hpFreq_melee;
#X obj 558 258 receive hpGain_melee;
#X obj 73 88 r bypassFilterBank_melee;
#X connect 0 0 17 0;
#X connect 1 0 0 1;
#X connect 2 0 21 1;
#X connect 3 0 11 1;
#X connect 4 0 12 1;
#X connect 5 0 17 0;
#X connect 6 0 5 1;
#X connect 7 0 17 0;
#X connect 8 0 7 1;
#X connect 9 0 11 0;
#X connect 9 0 12 0;
#X connect 9 0 13 0;
#X connect 9 0 21 0;
#X connect 11 0 0 0;
#X connect 12 0 7 0;
#X connect 13 0 10 0;
#X connect 14 0 13 1;
#X connect 16 0 14 0;
#X connect 17 0 10 0;
#X connect 18 0 17 1;
#X connect 19 0 20 0;
#X connect 20 0 16 0;
#X connect 21 0 5 0;
#X connect 22 0 3 0;
#X connect 23 0 1 0;
#X connect 24 0 6 0;
#X connect 25 0 2 0;
#X connect 26 0 4 0;
#X connect 27 0 8 0;
#X connect 28 0 16 0;
#X connect 28 0 18 0;
#X restore 2742 47 pd filterbank;
#N canvas 940 295 740 505 reverb 0;
#X obj 162 49 inlet~;
#X obj 144 364 outlet~;
#X floatatom 444 156 0 0 120 0 - - -;
#X text 485 156 level \, dB;
#X floatatom 472 173 0 0 100 0 - - -;
#X text 513 173 liveness \, 0-100;
#X floatatom 507 197 4 0 5000 0 - - -, f 4;
#X floatatom 542 220 0 0 100 0 - - -;
#X text 555 195 crossover frequency \, Hz.;
#X text 578 222 HF damping \, percent;
#X obj 235 233 rev3~ 100 90 3000 20;
#X obj 247 331 *~;
#X floatatom 317 299 5 0 0 0 - - -, f 5;
#X obj 26 288 *~;
#X floatatom 66 261 5 0 0 0 - - -, f 5;
#X text 355 299 wet reverb signal;
#X text 103 264 "dry" signal;
#X floatatom 410 59 5 0 0 0 - - -, f 5;
#X obj 82 215 expr 1 - $f1;
#X obj 340 3 loadbang;
#X msg 340 33 0;
#X obj 410 30 receive reverbWetDry_melee;
#X connect 0 0 13 0;
#X connect 0 0 10 0;
#X connect 2 0 10 2;
#X connect 4 0 10 3;
#X connect 6 0 10 4;
#X connect 7 0 10 5;
#X connect 10 0 11 0;
#X connect 10 1 11 0;
#X connect 10 2 11 0;
#X connect 10 3 11 0;
#X connect 11 0 1 0;
#X connect 12 0 11 1;
#X connect 13 0 1 0;
#X connect 14 0 13 1;
#X connect 17 0 12 0;
#X connect 17 0 18 0;
#X connect 18 0 14 0;
#X connect 19 0 20 0;
#X connect 20 0 17 0;
#X connect 21 0 17 0;
#X restore 2732 237 pd reverb;
#X obj 2250 0 hsl 128 15 0 1 0 1 reverbWetDry_melee reverbWetDry_melee
Reverb:_Dry_---_Wet -2 -8 0 10 #fcfcfc #000000 #000000 1350 1;
#X obj 2453 -187 hsl 128 15 0 1 0 0 lopGain_melee lopGain_melee LowPass_Gain
-2 -8 0 10 #fcfcfc #000000 #000000 0 1;
#X obj 2310 -190 hsl 128 15 50 4000 0 0 lopFreq_melee lopFreq_melee
LowPass_Frequency -2 -8 0 10 #fcfcfc #000000 #000000 0 1;
#X obj 2453 -144 hsl 128 15 0 1 0 1 bpGain_melee bpGain_melee BandPass_Gain
-2 -8 0 10 #fcfcfc #000000 #000000 12700 1;
#X obj 2310 -149 hsl 128 15 1000 4000 0 1 bpFreq_melee bpFreq_melee
BandPass_Frequency -2 -8 0 10 #fcfcfc #000000 #000000 4450 1;
#X obj 2455 -102 hsl 128 15 0 1 0 1 hpGain_melee hpGain_melee HighPass_Gain
-2 -8 0 10 #fcfcfc #000000 #000000 12700 1;
#X obj 2305 -105 hsl 128 15 1000 4000 0 1 hpFreq_melee hpFreq_melee
HighPass_Frequency -2 -8 0 10 #fcfcfc #000000 #000000 2400 1;
#X floatatom 2910 -247 5 0 0 0 - - -, f 5;
#X floatatom 2909 -197 5 0 0 0 - - -, f 5;
#X floatatom 2908 -140 5 0 0 0 - - -, f 5;
#X obj 2742 87 *~;
#X floatatom 2900 190 5 0 0 0 - - -, f 5;
#X floatatom 2881 161 5 0 0 0 - - -, f 5;
#X floatatom 2864 136 5 0 0 0 - - -, f 5;
#X floatatom 2829 89 5 0 0 0 - - -, f 5;
#X floatatom 2845 113 5 0 0 0 - - -, f 5;
#X text 2867 87 peak level;
#X text 2888 109 attack duration (ms);
#X text 2902 131 decay duration (ms);
#X text 2922 157 sustain level (% of peak);
#X text 2934 187 release duration (ms);
#N canvas 251 52 707 458 envelope_adsr 0;
#X obj 209 53 moses;
#X obj 112 56 inlet;
#X obj 112 92 sel 0;
#X msg 111 130 stop;
#X obj 209 93 t b b;
#X obj 258 125 t b;
#X obj 174 209 f \$1;
#X obj 174 245 pack 0 \$2;
#X msg 125 245 0;
#X obj 337 145 inlet;
#X obj 377 145 inlet;
#X obj 421 145 inlet;
#X obj 461 145 inlet;
#X obj 314 239 del \$2;
#X obj 314 265 f \$4;
#X obj 390 268 * \$1;
#X obj 389 299 pack 0 \$3;
#X obj 472 301 pack 0 \$5;
#X obj 518 269 inlet;
#X obj 354 358 line~;
#X obj 354 386 outlet~;
#X obj 313 299 * 0.5;
#X connect 0 0 4 0;
#X connect 0 1 5 0;
#X connect 1 0 2 0;
#X connect 2 0 3 0;
#X connect 2 0 17 0;
#X connect 2 1 0 0;
#X connect 3 0 13 0;
#X connect 4 0 5 0;
#X connect 4 1 8 0;
#X connect 5 0 6 0;
#X connect 5 0 13 0;
#X connect 6 0 7 0;
#X connect 7 0 19 0;
#X connect 8 0 19 0;
#X connect 9 0 15 1;
#X connect 9 0 6 1;
#X connect 10 0 13 1;
#X connect 10 0 7 1;
#X connect 11 0 16 1;
#X connect 12 0 14 1;
#X connect 13 0 14 0;
#X connect 14 0 21 0;
#X connect 15 0 16 0;
#X connect 16 0 19 0;
#X connect 17 0 19 0;
#X connect 18 0 17 1;
#X connect 19 0 20 0;
#X connect 21 0 15 0;
#X restore 2806 228 pd envelope_adsr;
#X msg 2879 52 1;
#X msg 3007 56 0.8;
#X obj 2952 27 loadbang;
#X obj 2260 -172 tgl 15 1 bypassFilterBank_melee bypassFilterBank_melee
empty 17 7 0 10 #fcfcfc #000000 #000000 0 1;
#X text 2249 -196 Bypass;
#X obj 2692 -173 r pitch;
#X obj 3212 -303 vsl 15 128 0 127 0 1 empty empty empty 0 -9 0 10 #fcfcfc
#000000 #000000 7700 1;
#X obj 3261 -76 s pitch;
#X floatatom 3262 -103 5 0 0 0 - - -, f 5;
#X obj 3205 60 select 32;
#X obj 3199 36 key;
#N canvas 270 86 1178 553 chorus 0;
#X obj 23 259 delwrite~ \$0-delay 1000;
#X obj 221 106 osc~ 0.05;
#X obj 221 131 *~ 10;
#X obj 376 130 *~ 10;
#X obj 221 156 +~ 11;
#X obj 376 155 +~ 21;
#X obj 376 105 osc~ 0.08;
#X obj 511 135 *~ 10;
#X obj 511 110 osc~ 0.13;
#X obj 511 160 +~ 13;
#X obj 694 142 *~ 10;
#X obj 694 167 +~ 55;
#X obj 694 117 osc~ 0.03;
#X obj 839 168 +~ 87;
#X obj 839 118 osc~ 0.015;
#X obj 985 114 osc~ 0.12;
#X obj 985 164 +~ 67;
#X obj 985 139 *~ 5;
#X obj 839 143 *~ 15;
#X obj 221 184 vd~ \$0-delay;
#X obj 376 183 vd~ \$0-delay;
#X obj 511 188 vd~ \$0-delay;
#X obj 694 195 vd~ \$0-delay;
#X obj 839 196 vd~ \$0-delay;
#X obj 985 192 vd~ \$0-delay;
#X obj 61 145 nbx 5 14 -1e+37 1e+37 0 0 empty empty empty 0 -8 0 10
#fcfcfc #000000 #000000 0 256 0;
#X obj 22 92 inlet~;
#X obj 532 418 outlet~;
#X obj 630 416 outlet~;
#X obj 271 269 *~ 0.05;
#X obj 214 270 *~ 0.95;
#X obj 1032 261 *~ 0.95;
#X obj 975 262 *~ 0.05;
#X obj 884 262 *~ 0.85;
#X obj 368 266 *~ 0.85;
#X obj 498 267 *~ 0.7;
#X obj 744 263 *~ 0.7;
#X obj 827 263 *~ 0.15;
#X obj 687 264 *~ 0.3;
#X obj 555 266 *~ 0.3;
#X obj 425 265 *~ 0.15;
#X obj 222 221 /~ 6;
#X obj 375 224 /~ 6;
#X obj 512 221 /~ 6;
#X obj 696 226 /~ 6;
#X obj 841 224 /~ 6;
#X obj 988 225 /~ 6;
#X obj 23 172 *~ 1;
#X connect 1 0 2 0;
#X connect 2 0 4 0;
#X connect 3 0 5 0;
#X connect 4 0 19 0;
#X connect 5 0 20 0;
#X connect 6 0 3 0;
#X connect 7 0 9 0;
#X connect 8 0 7 0;
#X connect 9 0 21 0;
#X connect 10 0 11 0;
#X connect 11 0 22 0;
#X connect 12 0 10 0;
#X connect 13 0 23 0;
#X connect 14 0 18 0;
#X connect 15 0 17 0;
#X connect 16 0 24 0;
#X connect 17 0 16 0;
#X connect 18 0 13 0;
#X connect 19 0 41 0;
#X connect 20 0 42 0;
#X connect 21 0 43 0;
#X connect 22 0 44 0;
#X connect 23 0 45 0;
#X connect 24 0 46 0;
#X connect 25 0 47 1;
#X connect 26 0 47 0;
#X connect 29 0 28 0;
#X connect 30 0 27 0;
#X connect 31 0 28 0;
#X connect 32 0 27 0;
#X connect 33 0 28 0;
#X connect 34 0 27 0;
#X connect 35 0 27 0;
#X connect 36 0 28 0;
#X connect 37 0 27 0;
#X connect 38 0 27 0;
#X connect 39 0 28 0;
#X connect 40 0 28 0;
#X connect 41 0 30 0;
#X connect 41 0 29 0;
#X connect 42 0 34 0;
#X connect 42 0 40 0;
#X connect 43 0 35 0;
#X connect 43 0 39 0;
#X connect 44 0 36 0;
#X connect 44 0 38 0;
#X connect 45 0 33 0;
#X connect 45 0 37 0;
#X connect 46 0 31 0;
#X connect 46 0 32 0;
#X connect 47 0 0 0;
#X restore 2692 -23 pd chorus;
#N canvas 124 135 364 640 flanger 0;
#X obj 75 208 +~ 1;
#X obj 75 235 *~ 0.5;
#X obj 74 417 vd~ \$0-delay1, f 16;
#X text 73 108 Low Frequency Oscillator;
#X text 203 263 Depth (ms);
#X obj 74 513 *~ 1;
#X text 87 546 y[n] = x[n] + ax[n-t];
#X text 163 487 Feedback (0-1);
#X obj 75 181 osc~ 1;
#X text 117 513 ax[n-t];
#X text 131 156 Rate (Hz);
#X obj 45 545 +~, f 4;
#X obj 75 159 nbx 5 14 -1e+37 1e+37 0 0 empty \$0-rate empty 0 -8 0
10 #fcfcfc #000000 #000000 1.87008 256 0;
#X obj 144 267 nbx 5 14 0 1e+37 0 0 empty \$0-depth empty 0 -8 0 10
#fcfcfc #000000 #000000 0.244094 256 0;
#X obj 147 356 nbx 5 14 0 1e+37 0 0 empty \$0-shift empty 0 -8 0 10
#fcfcfc #000000 #000000 0.393701 256 0;
#X obj 103 489 nbx 5 14 0 1 0 0 empty \$0-feedback empty 0 -8 0 10
#fcfcfc #000000 #000000 0 256 0;
#X obj 75 294 *~ 1, f 9;
#X obj 74 377 +~ 0.001, f 11;
#X obj 51 18 inlet~;
#X obj 46 606 outlet~;
#X obj 79 63 delwrite~ \$0-delay1 5000;
#X obj 75 132 receive flangerRate_melee;
#X obj 144 239 receive flangerDepth_melee;
#X obj 147 327 receive flangerShift_melee;
#X obj 105 455 receive flangerFeedback_melee;
#X connect 0 0 1 0;
#X connect 1 0 16 0;
#X connect 2 0 5 0;
#X connect 5 0 11 1;
#X connect 8 0 0 0;
#X connect 11 0 19 0;
#X connect 12 0 8 0;
#X connect 13 0 16 1;
#X connect 14 0 17 1;
#X connect 15 0 5 1;
#X connect 16 0 17 0;
#X connect 17 0 2 0;
#X connect 18 0 11 0;
#X connect 18 0 20 0;
#X connect 21 0 12 0;
#X connect 22 0 13 0;
#X connect 23 0 14 0;
#X connect 24 0 15 0;
#X restore 2692 -80 pd flanger;
#N canvas 70 339 943 470 xpand 0;
#X obj 381 16 inlet~;
#X obj 482 17 inlet~;
#X obj 484 370 outlet~;
#X obj 384 369 outlet~;
#X obj 446 140 +~;
#X obj 441 179 /~ 2;
#X obj 391 135 -~;
#X obj 513 140 -~;
#X obj 389 261 *~ 0;
#X obj 489 256 *~ 0;
#X floatatom 599 144 5 0 0 0 - - -, f 5;
#X obj 385 178 /~ 2;
#X obj 513 177 /~ 2;
#X obj 599 117 receive xpandAmount_melee;
#X connect 0 0 6 0;
#X connect 0 0 4 0;
#X connect 0 0 7 1;
#X connect 1 0 6 1;
#X connect 1 0 4 1;
#X connect 1 0 7 0;
#X connect 4 0 5 0;
#X connect 5 0 3 0;
#X connect 5 0 2 0;
#X connect 6 0 11 0;
#X connect 7 0 12 0;
#X connect 8 0 3 0;
#X connect 9 0 2 0;
#X connect 10 0 9 1;
#X connect 10 0 8 1;
#X connect 11 0 8 0;
#X connect 12 0 9 0;
#X connect 13 0 10 0;
#X restore 2692 7 pd xpand;
#X obj 2240 -270 hsl 128 15 0 5 0 0 xpandAmount_melee xpandAmount_melee
Xpand:_Amount -2 -8 0 10 #fcfcfc #000000 #000000 0 1;
#N canvas 62 84 2560 1304 filterbank 0;
#X obj 195 311 *~;
#X floatatom 210 283 5 0 0 0 - - -, f 5;
#X floatatom 384 152 5 0 0 0 - - -, f 5;
#X floatatom 245 142 5 0 0 0 - - -, f 5;
#X floatatom 586 148 5 0 0 0 - - -, f 5;
#X obj 360 321 *~;
#X floatatom 377 297 5 0 0 0 - - -, f 5;
#X obj 540 310 *~;
#X floatatom 557 286 5 0 0 0 - - -, f 5;
#X obj 360 71 inlet~;
#X obj 86 522 outlet~;
#X obj 195 172 lop~ 50;
#X obj 542 175 hip~ 1000;
#X obj 34 210 *~;
#X floatatom 54 165 5 0 0 0 - - -, f 5;
#X text 91 167 "dry" signal;
#X obj 56 136 expr 1 - $f1;
#X obj 203 449 *~;
#X floatatom 232 402 5 0 0 0 - - -, f 5;
#X obj 43 55 loadbang;
#X msg 44 81 0;
#X obj 357 186 bp~ 1000 10;
#X obj 247 113 receive lopFreq_melee;
#X obj 385 115 receive bpFreq_melee;
#X obj 586 122 receive hpFreq_melee;
#X obj 558 258 receive hpGain_melee;
#X obj 376 268 receive bpGain_melee;
#X obj 211 254 receive lopGain_melee;
#X obj 73 88 r bypassFilterBank_melee;
#X connect 0 0 17 0;
#X connect 1 0 0 1;
#X connect 2 0 21 1;
#X connect 3 0 11 1;
#X connect 4 0 12 1;
#X connect 5 0 17 0;
#X connect 6 0 5 1;
#X connect 7 0 17 0;
#X connect 8 0 7 1;
#X connect 9 0 11 0;
#X connect 9 0 12 0;
#X connect 9 0 13 0;
#X connect 9 0 21 0;
#X connect 11 0 0 0;
#X connect 12 0 7 0;
#X connect 13 0 10 0;
#X connect 14 0 13 1;
#X connect 16 0 14 0;
#X connect 17 0 10 0;
#X connect 18 0 17 1;
#X connect 19 0 20 0;
#X connect 20 0 16 0;
#X connect 21 0 5 0;
#X connect 22 0 3 0;
#X connect 23 0 2 0;
#X connect 24 0 4 0;
#X connect 25 0 8 0;
#X connect 26 0 6 0;
#X connect 27 0 1 0;
#X connect 28 0 16 0;
#X connect 28 0 18 0;
#X restore 2632 47 pd filterbank;
#X obj 2632 87 *~;
#N canvas 940 295 740 505 reverb 0;
#X obj 162 49 inlet~;
#X obj 144 364 outlet~;
#X floatatom 444 156 0 0 120 0 - - -;
#X text 485 156 level \, dB;
#X floatatom 472 173 0 0 100 0 - - -;
#X text 513 173 liveness \, 0-100;
#X floatatom 507 197 4 0 5000 0 - - -, f 4;
#X floatatom 542 220 0 0 100 0 - - -;
#X text 555 195 crossover frequency \, Hz.;
#X text 578 222 HF damping \, percent;
#X obj 235 233 rev3~ 100 90 3000 20;
#X obj 247 331 *~;
#X floatatom 317 299 5 0 0 0 - - -, f 5;
#X obj 26 288 *~;
#X floatatom 66 261 5 0 0 0 - - -, f 5;
#X text 355 299 wet reverb signal;
#X text 103 264 "dry" signal;
#X floatatom 410 59 5 0 0 0 - - -, f 5;
#X obj 82 215 expr 1 - $f1;
#X obj 340 3 loadbang;
#X msg 340 33 0;
#X obj 409 32 receive reverbWetDry_melee;
#X connect 0 0 13 0;
#X connect 0 0 10 0;
#X connect 2 0 10 2;
#X connect 4 0 10 3;
#X connect 6 0 10 4;
#X connect 7 0 10 5;
#X connect 10 0 11 0;
#X connect 10 1 11 0;
#X connect 10 2 11 0;
#X connect 10 3 11 0;
#X connect 11 0 1 0;
#X connect 12 0 11 1;
#X connect 13 0 1 0;
#X connect 14 0 13 1;
#X connect 17 0 12 0;
#X connect 17 0 18 0;
#X connect 18 0 14 0;
#X connect 19 0 20 0;
#X connect 20 0 17 0;
#X connect 21 0 17 0;
#X restore 2645 238 pd reverb;
#N canvas 183 60 420 393 masterGain 0;
#X obj 84 126 *~;
#X floatatom 104 102 5 0 0 0 - - -, f 5;
#X obj 56 28 inlet~;
#X obj 76 191 outlet~;
#X obj 106 73 receive mastergain_melee;
#X connect 0 0 3 0;
#X connect 1 0 0 1;
#X connect 2 0 0 0;
#X connect 4 0 1 0;
#X restore 2622 346 pd masterGain;
#X obj 2060 -20 hsl 128 15 0 1 0 1 flangerShift_melee flangerShift_melee
Flanger:_Shift -2 -8 0 10 #fcfcfc #000000 #000000 5000 1;
#X obj 2061 -55 hsl 128 15 0 1 0 1 flangerDepth_melee flangerDepth_melee
Flanger:_Depth -2 -8 0 10 #fcfcfc #000000 #000000 3100 1;
#X obj 2060 10 hsl 128 15 0 1 0 0 flangerFeedback_melee flangerFeedback_melee
Flanger:_Feedback -2 -8 0 10 #fcfcfc #000000 #000000 0 1;
#X obj 2060 -90 hsl 128 15 0 5 0 1 flangerRate_melee flangerRate_melee
Flanger:_Rate -2 -8 0 10 #fcfcfc #000000 #000000 4750 1;
#N canvas 81 165 504 767 phasor 0;
#X obj 113 164 +~ 1;
#X obj 113 191 *~ 0.5;
#X text 110 70 Low Frequency Oscillator;
#X text 199 487 x[n-t];
#X text 188 365 t (ms);
#X text 241 219 Depth (ms);
#X text 48 527 x[n];
#X obj 113 561 *~ 1;
#X text 126 600 y[n] = x[n] + ax[n-t];
#X text 228 537 Feedback (0-1);
#X obj 113 137 osc~ 1;
#X text 156 561 ax[n-t];
#X text 169 112 Rate (Hz);
#X text 240 304 Shift (ms);
#X obj 84 599 +~, f 4;
#X obj 113 115 nbx 5 14 -1e+37 1e+37 0 0 empty \$0-rate empty 0 -8
0 10 #fcfcfc #000000 #000000 0 256 0;
#X obj 182 223 nbx 5 14 0 1e+37 0 0 empty \$0-depth empty 0 -8 0 10
#fcfcfc #000000 #000000 0 256 0;
#X obj 180 308 nbx 5 14 0 1e+37 0 0 empty \$0-shift empty 0 -8 0 10
#fcfcfc #000000 #000000 0.511811 256 0;
#X obj 168 539 nbx 5 14 0 1 0 0 empty \$0-feedback empty 0 -8 0 10
#fcfcfc #000000 #000000 1 256 0;
#N canvas 0 23 622 635 apset~ 0;
#N canvas 0 22 450 300 ap~ 0;
#X obj 127 160 rpole~;
#X obj 127 135 rzero_rev~;
#X obj 127 92 inlet~;
#X obj 127 185 outlet~;
#X obj 204 92 inlet~;
#X connect 0 0 3 0;
#X connect 1 0 0 0;
#X connect 2 0 1 0;
#X connect 4 0 1 1;
#X connect 4 0 0 1;
#X restore 155 36 pd ap~;
#N canvas 0 22 450 300 ap~ 0;
#X obj 127 160 rpole~;
#X obj 127 135 rzero_rev~;
#X obj 127 92 inlet~;
#X obj 127 185 outlet~;
#X obj 204 92 inlet~;
#X connect 0 0 3 0;
#X connect 1 0 0 0;
#X connect 2 0 1 0;
#X connect 4 0 1 1;
#X connect 4 0 0 1;
#X restore 155 66 pd ap~;
#N canvas 0 22 450 300 ap~ 0;
#X obj 127 160 rpole~;
#X obj 127 135 rzero_rev~;
#X obj 127 92 inlet~;
#X obj 127 185 outlet~;
#X obj 204 92 inlet~;
#X connect 0 0 3 0;
#X connect 1 0 0 0;
#X connect 2 0 1 0;
#X connect 4 0 1 1;
#X connect 4 0 0 1;
#X restore 155 96 pd ap~;
#N canvas 0 22 450 300 ap~ 0;
#X obj 127 160 rpole~;
#X obj 127 135 rzero_rev~;
#X obj 127 92 inlet~;
#X obj 127 185 outlet~;
#X obj 204 92 inlet~;
#X connect 0 0 3 0;
#X connect 1 0 0 0;
#X connect 2 0 1 0;
#X connect 4 0 1 1;
#X connect 4 0 0 1;
#X restore 155 126 pd ap~;
#N canvas 0 22 450 300 ap~ 0;
#X obj 127 160 rpole~;
#X obj 127 135 rzero_rev~;
#X obj 127 92 inlet~;
#X obj 127 185 outlet~;
#X obj 204 92 inlet~;
#X connect 0 0 3 0;
#X connect 1 0 0 0;
#X connect 2 0 1 0;
#X connect 4 0 1 1;
#X connect 4 0 0 1;
#X restore 155 156 pd ap~;
#N canvas 0 22 450 300 ap~ 0;
#X obj 127 160 rpole~;
#X obj 127 135 rzero_rev~;
#X obj 127 92 inlet~;
#X obj 127 185 outlet~;
#X obj 204 92 inlet~;
#X connect 0 0 3 0;
#X connect 1 0 0 0;
#X connect 2 0 1 0;
#X connect 4 0 1 1;
#X connect 4 0 0 1;
#X restore 155 186 pd ap~;
#N canvas 0 22 450 300 ap~ 0;
#X obj 127 160 rpole~;
#X obj 127 135 rzero_rev~;
#X obj 127 92 inlet~;
#X obj 127 185 outlet~;
#X obj 204 92 inlet~;
#X connect 0 0 3 0;
#X connect 1 0 0 0;
#X connect 2 0 1 0;
#X connect 4 0 1 1;
#X connect 4 0 0 1;
#X restore 155 216 pd ap~;
#N canvas 0 22 450 300 ap~ 0;
#X obj 127 160 rpole~;
#X obj 127 135 rzero_rev~;
#X obj 127 92 inlet~;
#X obj 127 185 outlet~;
#X obj 204 92 inlet~;
#X connect 0 0 3 0;
#X connect 1 0 0 0;
#X connect 2 0 1 0;
#X connect 4 0 1 1;
#X connect 4 0 0 1;
#X restore 155 246 pd ap~;
#N canvas 0 22 450 300 ap~ 0;
#X obj 127 160 rpole~;
#X obj 127 135 rzero_rev~;
#X obj 127 92 inlet~;
#X obj 127 185 outlet~;
#X obj 204 92 inlet~;
#X connect 0 0 3 0;
#X connect 1 0 0 0;
#X connect 2 0 1 0;
#X connect 4 0 1 1;
#X connect 4 0 0 1;
#X restore 155 276 pd ap~;
#N canvas 0 22 450 300 ap~ 0;
#X obj 127 160 rpole~;
#X obj 127 135 rzero_rev~;
#X obj 127 92 inlet~;
#X obj 127 185 outlet~;
#X obj 204 92 inlet~;
#X connect 0 0 3 0;
#X connect 1 0 0 0;
#X connect 2 0 1 0;
#X connect 4 0 1 1;
#X connect 4 0 0 1;
#X restore 155 306 pd ap~;
#N canvas 0 22 450 300 ap~ 0;
#X obj 127 160 rpole~;
#X obj 127 135 rzero_rev~;
#X obj 127 92 inlet~;
#X obj 127 185 outlet~;
#X obj 204 92 inlet~;
#X connect 0 0 3 0;
#X connect 1 0 0 0;
#X connect 2 0 1 0;
#X connect 4 0 1 1;
#X connect 4 0 0 1;
#X restore 155 336 pd ap~;
#N canvas 0 22 450 300 ap~ 0;
#X obj 127 160 rpole~;
#X obj 127 135 rzero_rev~;
#X obj 127 92 inlet~;
#X obj 127 185 outlet~;
#X obj 204 92 inlet~;
#X connect 0 0 3 0;
#X connect 1 0 0 0;
#X connect 2 0 1 0;
#X connect 4 0 1 1;
#X connect 4 0 0 1;
#X restore 155 366 pd ap~;
#N canvas 0 22 450 300 ap~ 0;
#X obj 127 160 rpole~;
#X obj 127 135 rzero_rev~;
#X obj 127 92 inlet~;
#X obj 127 185 outlet~;
#X obj 204 92 inlet~;
#X connect 0 0 3 0;
#X connect 1 0 0 0;
#X connect 2 0 1 0;
#X connect 4 0 1 1;
#X connect 4 0 0 1;
#X restore 155 396 pd ap~;
#N canvas 0 22 450 300 ap~ 0;
#X obj 127 160 rpole~;
#X obj 127 135 rzero_rev~;
#X obj 127 92 inlet~;
#X obj 127 185 outlet~;
#X obj 204 92 inlet~;
#X connect 0 0 3 0;
#X connect 1 0 0 0;
#X connect 2 0 1 0;
#X connect 4 0 1 1;
#X connect 4 0 0 1;
#X restore 155 426 pd ap~;
#N canvas 0 22 450 300 ap~ 0;
#X obj 127 160 rpole~;
#X obj 127 135 rzero_rev~;
#X obj 127 92 inlet~;
#X obj 127 185 outlet~;
#X obj 204 92 inlet~;
#X connect 0 0 3 0;
#X connect 1 0 0 0;
#X connect 2 0 1 0;
#X connect 4 0 1 1;
#X connect 4 0 0 1;
#X restore 155 456 pd ap~;
#N canvas 0 22 450 300 ap~ 0;
#X obj 127 160 rpole~;
#X obj 127 135 rzero_rev~;
#X obj 127 92 inlet~;
#X obj 127 185 outlet~;
#X obj 204 92 inlet~;
#X connect 0 0 3 0;
#X connect 1 0 0 0;
#X connect 2 0 1 0;
#X connect 4 0 1 1;
#X connect 4 0 0 1;
#X restore 155 486 pd ap~;
#X obj 155 6 inlet~;
#X obj 225 6 inlet~;
#X obj 155 511 outlet~;
#X connect 0 0 1 0;
#X connect 1 0 2 0;
#X connect 2 0 3 0;
#X connect 3 0 4 0;
#X connect 4 0 5 0;
#X connect 5 0 6 0;
#X connect 6 0 7 0;
#X connect 7 0 8 0;
#X connect 8 0 9 0;
#X connect 9 0 10 0;
#X connect 10 0 11 0;
#X connect 11 0 12 0;
#X connect 12 0 13 0;
#X connect 13 0 14 0;
#X connect 14 0 15 0;
#X connect 15 0 18 0;
#X connect 16 0 0 0;
#X connect 17 0 0 1;
#X connect 17 0 1 1;
#X connect 17 0 2 1;
#X connect 17 0 3 1;
#X connect 17 0 4 1;
#X connect 17 0 5 1;
#X connect 17 0 6 1;
#X connect 17 0 7 1;
#X connect 17 0 8 1;
#X connect 17 0 9 1;
#X connect 17 0 10 1;
#X connect 17 0 11 1;
#X connect 17 0 12 1;
#X connect 17 0 13 1;
#X connect 17 0 14 1;
#X connect 17 0 15 1;
#X restore 113 488 pd apset~;
#X obj 113 250 *~ 0.3, f 9;
#X obj 114 330 +~ 0.6, f 11;
#X obj 181 464 clip~ 0 1;
#X obj 67 37 inlet~;
#X obj 82 672 outlet~;
#X obj 110 90 receive phasorRate_melee;
#X obj 185 197 receive phasorDepth_melee;
#X obj 182 281 receive phasorShift_melee;
#X obj 168 515 receive phasorFeedback_melee;
#X connect 0 0 1 0;
#X connect 1 0 20 0;
#X connect 7 0 14 1;
#X connect 10 0 0 0;
#X connect 14 0 24 0;
#X connect 15 0 10 0;
#X connect 16 0 20 1;
#X connect 17 0 21 1;
#X connect 18 0 7 1;
#X connect 19 0 7 0;
#X connect 20 0 21 0;
#X connect 21 0 22 0;
#X connect 22 0 19 1;
#X connect 23 0 14 0;
#X connect 23 0 19 0;
#X connect 25 0 15 0;
#X connect 26 0 16 0;
#X connect 27 0 17 0;
#X connect 28 0 18 0;
#X restore 2692 -50 pd phasor;
#X obj 2060 120 hsl 128 15 0 1 0 1 phasorShift_melee phasorShift_melee
Phasor:_Shift -2 -8 0 10 #fcfcfc #000000 #000000 6500 1;
#X obj 2061 85 hsl 128 15 0 1 0 1 phasorDepth_melee phasorDepth_melee
Phasor:_Depth -2 -8 0 10 #fcfcfc #000000 #000000 0 1;
#X obj 2063 155 hsl 128 15 0 1 0 1 phasorFeedback_melee phasorFeedback_melee
Phasor:_Feedback -2 -8 0 10 #fcfcfc #000000 #000000 12700 1;
#X obj 2060 50 hsl 128 15 0 5 0 1 phasorRate_melee phasorRate_melee
Phasor:_Rate -2 -8 0 10 #fcfcfc #000000 #000000 0 1;
#X floatatom 3277 266 5 0 0 0 - - -, f 5;
#X obj 3186 188 line;
#X obj 3278 288 sel 1;
#X obj 3033 228 tgl 19 0 empty empty empty 0 -10 0 12 #fcfcfc #000000
#000000 0 100;
#X msg 3234 145 0 \, 1 90;
#X obj 2952 -310 loadbang;
#X floatatom 2935 -279 5 0 0 0 - - -, f 5;
#X msg 2919 53 200;
#X msg 2953 60 175;
#X msg 2977 60 330;
#X obj 3392 -133 r melee;
#X obj 3426 -34 tgl 19 0 empty empty empty 0 -10 0 12 #fcfcfc #000000
#000000 0 100;
#X obj 3485 -47 print;
#X obj 2910 -220 s oscpitch1_melee;
#X obj 2909 -163 s oscpitch2_melee;
#X obj 2908 -113 s oscpitch3_melee;
#X obj 2230 1100 bng 137 250 50 0 swing empty swing 0 -9 0 10 #fcfcfc
#000000 #000000;
#N canvas 0 50 450 300 (subpatch) 0;
#X array array3 2051 float 0 black black;
#X coords 0 1 2050 -1 200 100 1;
#X restore 3020 1120 graph;
#X obj 3122 2213 metro 100;
#X obj 3123 2183 tgl 15 1 empty empty empty 17 7 0 10 #fcfcfc #000000
#000000 1 1;
#X obj 3122 2245 tabwrite~ array3;
#X obj 3010 1710 bp~ 2200 8;
#X obj 3010 1730 *~ 8;
#X obj 3012 1983 +~;
#X obj 3012 2133 *~;
#X obj 2992 2263 dac~;
#X obj 3160 1790 expr~ tanh($v1);
#X floatatom 3161 1711 5 0 0 0 - - -, f 5;
#X obj 3160 1766 *~;
#X text 3202 1696 Distortion Amount;
#X obj 3065 1865 expr 1 - $f1;
#X obj 3014 1921 *~;
#X floatatom 3054 1894 5 0 0 0 - - -, f 5;
#X text 3091 1897 "dry" signal;
#X obj 3213 1897 *~;
#X floatatom 3240 1870 5 0 0 0 - - -, f 5;
#X text 3248 1898 wet;
#X floatatom 3367 1842 5 0 0 0 - - -, f 5;
#X obj 3310 1790 loadbang;
#X msg 3310 1820 0;
#X obj 2234 1633 metro 100;
#X obj 2235 1603 tgl 15 1 empty empty empty 17 7 0 10 #fcfcfc #000000
#000000 1 1;
#N canvas 0 50 450 300 (subpatch) 0;
#X array array2 2051 float 0 black black;
#X coords 0 1 2050 -1 200 100 1;
#X restore 2480 1010 graph;
#X obj 2234 1665 tabwrite~ array2;
#X obj 3122 2073 r masterVolume;
#X obj 3252 2065 vline~;
#X obj 2048 1438 *~;
#X obj 2311 1409 vline~;
#X obj 2047 1564 dac~;
#X obj 2742 702 hsl 128 15 0 1 0 0 lopGain_annunaki lopGain_annunaki
LowPass_Gain -2 -8 0 10 #fcfcfc #000000 #000000 0 1;
#X obj 2598 703 hsl 128 15 50 4000 0 1 lopFreq_annunaki lopFreq_annunaki
LowPass_Frequency -2 -8 0 10 #fcfcfc #000000 #000000 0 1;
#X obj 2741 745 hsl 128 15 0 1 0 1 bpGain_annunaki bpGain_annunaki
BandPass_Gain -2 -8 0 10 #fcfcfc #000000 #000000 12700 1;
#X obj 2598 744 hsl 128 15 1000 4000 0 1 bpFreq_annunaki bpFreq_annunaki
BandPass_Frequency -2 -8 0 10 #fcfcfc #000000 #000000 4450 1;
#X obj 2742 789 hsl 128 15 0 1 0 1 hpGain_annunaki hpGain_annunaki
HighPass_Gain -2 -8 0 10 #fcfcfc #000000 #000000 12700 1;
#X obj 2596 789 hsl 128 15 1000 4000 0 1 hpFreq_annunaki hpFreq_annunaki
HighPass_Frequency -2 -8 0 10 #fcfcfc #000000 #000000 2400 1;
#X obj 2312 1346 r swing;
#X obj 3252 1973 r swing;
#X obj 2906 739 hsl 128 15 1 8 0 1 bpQ_annunaki bpQ_annunaki BandPass_Q
-2 -8 0 10 #fcfcfc #000000 #000000 11100 1;
#X obj 2384 762 hsl 128 15 0 1 0 1 flangerShift_annunaki flangerShift_annunaki
Flanger:_Shift -2 -8 0 10 #fcfcfc #000000 #000000 0 1;
#X obj 2381 725 hsl 128 15 0 1 0 1 flangerDepth_annunaki flangerDepth_annunaki
Flanger:_Depth -2 -8 0 10 #fcfcfc #000000 #000000 0 1;
#X obj 2384 804 hsl 128 15 0 1 0 1 flangerFeedback_annunaki flangerFeedback_annunaki
Flanger:_Feedback -2 -8 0 10 #fcfcfc #000000 #000000 0 1;
#X obj 2380 690 hsl 128 15 0 5 0 1 flangerRate_annunaki flangerRate_annunaki
Flanger:_Rate -2 -8 0 10 #fcfcfc #000000 #000000 0 1;
#X obj 3012 2043 rev3~ 100 80 3000 20;
#X obj 2847 1541 dac~;
#X obj 2800 1361 vline~;
#X obj 2801 1298 r swing;
#X obj 2640 1400 *~;
#X obj 3210 1558 metro 100;
#X obj 3211 1528 tgl 15 1 empty empty empty 17 7 0 10 #fcfcfc #000000
#000000 1 1;
#N canvas 0 50 450 300 (subpatch) 0;
#X array clicks 2051 float 0 black black;
#X coords 0 1 2050 -1 200 100 1;
#X restore 2480 1120 graph;
#X obj 3210 1590 tabwrite~ clicks;
#X obj 2700 1450 *~ 2;
#X obj 2992 2213 *~ 2;
#X obj 2634 1693 dac~;
#X obj 2744 1643 metro 100;
#X obj 2745 1613 tgl 15 1 empty empty empty 17 7 0 10 #fcfcfc #000000
#000000 1 1;
#N canvas 0 50 450 300 (subpatch) 0;
#X array clicks2 2051 float 0 black black;
#X coords 0 1 2050 -1 300 100 1;
#X restore 2700 1120 graph;
#X obj 2744 1675 tabwrite~ clicks2;
#X obj 2170 773 hsl 128 15 0 1 0 1 distortionWetDry_annunaki distortionWetDry_annunaki
Distortion:_Dry_---_Wet -2 -8 0 10 #fcfcfc #000000 #000000 2600 1;
#X obj 2171 735 hsl 128 15 0.5 6 0 1 distortionAmnt_annunaki distortionAmnt_annunaki
Distortion_Amount -2 -8 0 10 #fcfcfc #000000 #000000 12700 1;
#X msg 3252 2013 0 100 \, 0.4 250 300 \, 0.5 400 650 \, 0 500 650;
#X obj 2044 1493 rev3~ 75 82 2000 50;
#X msg 2320 1380 0 100 \, 0.2 100 100 \, 0.4 150 450 \, 0 50 800;
#X obj 2860 1460 rev3~ 100 86 2250 50;
#X msg 2800 1340 0 100 \, 0.4 250 300 \, 0.5 200 650 \, 0 250 650;
#X obj 3172 1673 receive distortionAmnt_annunaki;
#X obj 3366 1815 receive distortionWetDry_annunaki;
#X text 2080 -340 <h>Melee SFX Controls</h>;
#X text 2420 600 <h>Enemy Attack SFX Controls</h>;
#N canvas 1932 511 819 612 filterbank_breath 0;
#X obj 216 -430 noise~;
#X obj 78 -123 *~;
#X floatatom 93 -151 5 0 0 0 - - -, f 5;
#X obj 78 -262 lop~ 4000;
#X floatatom 267 -282 5 0 0 0 - - -, f 5;
#X floatatom 339 -242 5 0 0 0 - - -, f 5;
#X floatatom 128 -292 5 0 0 0 - - -, f 5;
#X obj 425 -259 hip~ 200;
#X floatatom 469 -286 5 0 0 0 - - -, f 5;
#X obj 243 -113 *~;
#X floatatom 260 -137 5 0 0 0 - - -, f 5;
#X obj 410 -110 *~;
#X floatatom 440 -148 5 0 0 0 - - -, f 5;
#X obj 240 -248 bp~ 200 5;
#X obj 339 -282 int;
#X text 379 -382 Wind/Breathing;
#X obj 130 -321 receive lopFreq_annunaki;
#X obj 249 -342 receive bpFreq_annunaki;
#X obj 319 -312 receive bpQ_annunaki;
#X obj 469 -312 receive hpFreq_annunaki;
#X obj 439 -172 receive hpGain_annunaki;
#X obj 259 -166 receive bpGain_annunaki;
#X obj 94 -180 receive lopGain_annunaki;
#X obj 230 -19 outlet~;
#X connect 0 0 7 0;
#X connect 0 0 3 0;
#X connect 0 0 13 0;
#X connect 1 0 23 0;
#X connect 2 0 1 1;
#X connect 3 0 1 0;
#X connect 4 0 13 1;
#X connect 5 0 13 2;
#X connect 6 0 3 1;
#X connect 7 0 11 0;
#X connect 8 0 7 1;
#X connect 9 0 23 0;
#X connect 10 0 9 1;
#X connect 11 0 23 0;
#X connect 12 0 11 1;
#X connect 13 0 9 0;
#X connect 14 0 5 0;
#X connect 16 0 6 0;
#X connect 17 0 4 0;
#X connect 18 0 14 0;
#X connect 19 0 8 0;
#X connect 20 0 12 0;
#X connect 21 0 10 0;
#X connect 22 0 2 0;
#X restore 2054 1313 pd filterbank_breath;
#N canvas 1487 516 450 300 chitter 0;
#X obj 156 249 clip~ 0 1;
#X obj 229 248 noise~;
#X obj 156 290 lop~ 30;
#X obj 111 136 noise~;
#X obj 229 269 hip~ 1000;
#X obj 156 365 hip~ 100;
#X obj 156 229 *~ 600;
#X obj 156 269 hip~ 10;
#X obj 111 158 bp~ 9 15;
#X obj 184 150 osc~ 9;
#X obj 111 180 *~;
#X obj 184 198 *~;
#X obj 200 176 == 0;
#X obj 200 127 tgl 15 0 empty empty break 0 -6 1 8 #fcfcfc #000000
#000000 0 1;
#X obj 229 290 bp~ 590 4;
#X obj 88 338 bp~ 470 8;
#X obj 156 338 bp~ 780 9;
#X obj 224 338 bp~ 1024 10;
#X obj 156 313 *~;
#X msg 194 8 loadbang;
#X msg 194 38 1;
#X obj 264 58 r swing;
#X msg 264 88 0;
#X obj 160 390 outlet~;
#X connect 0 0 7 0;
#X connect 1 0 4 0;
#X connect 2 0 18 0;
#X connect 3 0 8 0;
#X connect 4 0 14 0;
#X connect 5 0 23 0;
#X connect 6 0 0 0;
#X connect 7 0 2 0;
#X connect 8 0 10 0;
#X connect 9 0 11 0;
#X connect 10 0 6 0;
#X connect 11 0 6 0;
#X connect 12 0 11 1;
#X connect 13 0 12 0;
#X connect 13 0 10 1;
#X connect 14 0 18 1;
#X connect 15 0 5 0;
#X connect 16 0 5 0;
#X connect 17 0 5 0;
#X connect 18 0 15 0;
#X connect 18 0 16 0;
#X connect 18 0 17 0;
#X connect 19 0 20 0;
#X connect 20 0 13 0;
#X connect 21 0 22 0;
#X connect 22 0 13 0;
#X restore 2644 1313 pd chitter;
#N canvas 1487 516 450 300 flanger 0;
#X obj 170 70 inlet~;
#X obj 170 680 outlet~;
#X obj 310 286 +~ 1;
#X obj 310 313 *~ 0.5;
#X text 438 341 Depth (ms);
#X obj 309 591 *~ 1;
#X text 322 624 y[n] = x[n] + ax[n-t];
#X text 398 565 Feedback (0-1);
#X obj 310 259 osc~ 1;
#X text 352 591 ax[n-t];
#X text 366 234 Rate (Hz);
#X obj 170 620 +~, f 4;
#X obj 310 237 nbx 5 14 -1e+37 1e+37 0 0 empty \$0-rate empty 0 -8
0 10 #fcfcfc #000000 #000000 0 256 0;
#X obj 379 345 nbx 5 14 0 1e+37 0 0 empty \$0-depth empty 0 -8 0 10
#fcfcfc #000000 #000000 0 256 0;
#X obj 382 434 nbx 5 14 0 1e+37 0 0 empty \$0-shift empty 0 -8 0 10
#fcfcfc #000000 #000000 0 256 0;
#X obj 338 567 nbx 5 14 0 1 0 0 empty \$0-feedback empty 0 -8 0 10
#fcfcfc #000000 #000000 0 256 0;
#X obj 310 372 *~ 1, f 9;
#X obj 309 455 +~ 0.001, f 11;
#X obj 310 210 receive flangerRate_annunaki;
#X obj 379 317 receive flangerDepth_annunaki;
#X obj 340 533 receive flangerFeedback_annunaki;
#X obj 382 405 receive flangerShift_annunaki;
#X obj 310 180 delwrite~ \$0-delay1_annunaki 1;
#X obj 309 495 vd~ \$0-delay1_annunaki, f 27;
#X connect 0 0 22 0;
#X connect 0 0 11 0;
#X connect 2 0 3 0;
#X connect 3 0 16 0;
#X connect 5 0 11 1;
#X connect 8 0 2 0;
#X connect 11 0 1 0;
#X connect 12 0 8 0;
#X connect 13 0 16 1;
#X connect 14 0 17 1;
#X connect 15 0 5 1;
#X connect 16 0 17 0;
#X connect 17 0 23 0;
#X connect 18 0 12 0;
#X connect 19 0 13 0;
#X connect 20 0 15 0;
#X connect 21 0 14 0;
#X connect 23 0 5 0;
#X restore 2634 1623 pd flanger;
#X text 750 490 <h>BGM Music Controls</h>;
#X connect 0 0 1 0;
#X connect 2 0 8 0;
#X connect 3 0 48 0;
#X connect 4 0 3 0;
#X connect 5 0 31 0;
#X connect 5 0 32 0;
#X connect 5 0 40 0;
#X connect 5 0 41 0;
#X connect 7 0 31 0;
#X connect 7 0 32 0;
#X connect 7 0 40 0;
#X connect 7 0 41 0;
#X connect 8 0 10 0;
#X connect 9 0 31 0;
#X connect 9 0 32 0;
#X connect 9 0 40 0;
#X connect 9 0 41 0;
#X connect 10 0 11 0;
#X connect 11 0 12 0;
#X connect 12 0 13 0;
#X connect 14 0 7 0;
#X connect 15 0 17 0;
#X connect 16 0 14 0;
#X connect 17 0 14 1;
#X connect 18 0 19 0;
#X connect 19 0 20 0;
#X connect 20 0 26 0;
#X connect 26 0 21 0;
#X connect 26 0 21 1;
#X connect 29 0 2 0;
#X connect 30 0 2 0;
#X connect 31 0 42 0;
#X connect 32 0 35 0;
#X connect 35 0 18 0;
#X connect 38 0 2 0;
#X connect 39 0 2 0;
#X connect 40 0 44 0;
#X connect 41 0 47 0;
#X connect 42 0 18 0;
#X connect 44 0 18 0;
#X connect 47 0 18 0;
#X connect 48 0 30 0;
#X connect 48 1 29 0;
#X connect 48 2 38 0;
#X connect 48 3 39 0;
#X connect 51 0 53 0;
#X connect 53 0 56 0;
#X connect 54 0 53 0;
#X connect 58 0 60 0;
#X connect 59 0 61 0;
#X connect 59 1 61 0;
#X connect 60 0 59 0;
#X connect 61 0 57 0;
#X connect 63 0 71 0;
#X connect 67 0 68 1;
#X connect 71 0 109 0;
#X connect 73 0 85 0;
#X connect 74 0 67 0;
#X connect 82 0 138 0;
#X connect 83 0 139 0;
#X connect 84 0 140 0;
#X connect 85 0 74 0;
#X connect 86 0 96 5;
#X connect 87 0 96 4;
#X connect 88 0 96 3;
#X connect 89 0 96 1;
#X connect 90 0 96 2;
#X connect 96 0 85 1;
#X connect 96 0 113 1;
#X connect 97 0 89 0;
#X connect 98 0 87 0;
#X connect 99 0 97 0;
#X connect 99 0 132 0;
#X connect 99 0 98 0;
#X connect 99 0 133 0;
#X connect 99 0 134 0;
#X connect 102 0 63 0;
#X connect 103 0 105 0;
#X connect 105 0 104 0;
#X connect 106 0 129 0;
#X connect 106 0 128 0;
#X connect 107 0 106 0;
#X connect 108 0 110 0;
#X connect 108 1 110 1;
#X connect 109 0 120 0;
#X connect 110 0 112 0;
#X connect 110 1 73 0;
#X connect 112 0 113 0;
#X connect 113 0 114 0;
#X connect 114 0 115 0;
#X connect 115 0 68 0;
#X connect 120 0 108 0;
#X connect 125 0 127 0;
#X connect 126 0 125 0;
#X connect 127 0 128 0;
#X connect 128 0 96 0;
#X connect 129 0 126 0;
#X connect 130 0 131 0;
#X connect 131 0 82 0;
#X connect 132 0 90 0;
#X connect 133 0 88 0;
#X connect 134 0 86 0;
#X connect 135 0 128 0;
#X connect 135 0 129 0;
#X connect 135 0 136 0;
#X connect 135 0 137 0;
#X connect 135 0 105 0;
#X connect 143 0 145 0;
#X connect 144 0 143 0;
#X connect 146 0 147 0;
#X connect 147 0 156 0;
#X connect 147 0 153 0;
#X connect 148 0 187 0;
#X connect 149 0 197 0;
#X connect 151 0 159 0;
#X connect 152 0 153 1;
#X connect 153 0 151 0;
#X connect 155 0 157 0;
#X connect 156 0 148 0;
#X connect 157 0 156 1;
#X connect 159 0 148 0;
#X connect 160 0 159 1;
#X connect 162 0 155 0;
#X connect 162 0 160 0;
#X connect 163 0 164 0;
#X connect 164 0 162 0;
#X connect 165 0 168 0;
#X connect 166 0 165 0;
#X connect 169 0 149 1;
#X connect 170 0 149 1;
#X connect 171 0 206 0;
#X connect 172 0 171 1;
#X connect 180 0 207 0;
#X connect 181 0 205 0;
#X connect 187 0 149 0;
#X connect 189 0 191 1;
#X connect 190 0 209 0;
#X connect 191 0 196 0;
#X connect 191 0 216 0;
#X connect 192 0 195 0;
#X connect 193 0 192 0;
#X connect 196 0 146 0;
#X connect 196 0 208 0;
#X connect 197 0 145 0;
#X connect 197 0 150 0;
#X connect 197 0 150 1;
#X connect 199 0 202 0;
#X connect 200 0 199 0;
#X connect 205 0 170 0;
#X connect 206 0 168 0;
#X connect 206 0 173 0;
#X connect 206 0 173 1;
#X connect 207 0 172 0;
#X connect 208 0 188 0;
#X connect 208 0 188 1;
#X connect 208 0 195 0;
#X connect 209 0 189 0;
#X connect 210 0 152 0;
#X connect 211 0 162 0;
#X connect 214 0 171 0;
#X connect 215 0 191 0;
#X connect 216 0 198 0;
#X connect 216 0 198 1;
#X connect 216 0 202 0;
