#N canvas 3165 628 2107 1232 10;
#X obj 22 -77 tgl 15 0 empty empty empty 17 7 0 10 #fcfcfc #000000
#000000 0 1;
#X msg 22 -52 \; pd dsp \$1;
#X obj 1250 205 soundfiler;
#X obj 1359 -40 bng 15 250 50 0 empty empty empty 17 7 0 10 #fcfcfc
#000000 #000000;
#X obj 1359 -67 loadbang;
#X msg 660 30 0, f 4;
#N canvas 212 36 450 300 (subpatch) 0;
#X array Percussion 769745 float 0 black black;
#X coords 0 1 769744 -1 300 100 1;
#X restore 1350 210 graph;
#X obj 499 49 bng 15 250 50 0 empty empty empty 17 7 0 10 #fcfcfc #000000
#000000;
#X floatatom 1250 229 15 0 0 0 - - -, f 15;
#X msg 700 30 stop;
#X obj 1250 255 / 44100;
#X obj 1249 284 * 1000;
#X floatatom 1249 310 5 0 0 0 - - -, f 5;
#X obj 1250 340 s loopTime;
#X obj 514 2 metro 1000;
#X obj 572 -46 r loopTime;
#X obj 514 -32 tgl 15 0 empty empty empty 17 7 0 10 #fcfcfc #000000
#000000 1 1;
#X floatatom 571 -22 5 0 0 0 - - -, f 5;
#N canvas 52 386 661 298 delayLine 0;
#X obj 36 147 delwrite~ del_line 2000;
#X obj 323 121 delread4~ del_line;
#X floatatom 323 92 5 0 0 0 - - -, f 5;
#X obj 308 151 +~;
#X obj 172 36 inlet~;
#X obj 352 262 outlet~;
#X obj 323 61 receive delayTime;
#X obj 170 195 receive delayFeedback;
#X obj 155 256 *~;
#X floatatom 170 219 5 0 0 0 - - -, f 5;
#X connect 1 0 3 1;
#X connect 2 0 1 0;
#X connect 3 0 5 0;
#X connect 3 0 8 0;
#X connect 4 0 0 0;
#X connect 4 0 3 0;
#X connect 6 0 2 0;
#X connect 7 0 9 0;
#X connect 8 0 0 0;
#X connect 9 0 8 1;
#X restore 520 330 pd delayLine;
#N canvas 1010 484 523 364 distortion 0;
#X obj 147 32 inlet~;
#X obj 152 238 outlet~;
#X obj 176 161 expr~ tanh($v1);
#X floatatom 234 87 5 0 0 0 - - -, f 5;
#X obj 176 137 *~;
#X text 275 72 Distortion Amount;
#X obj 245 49 receive distortionAmnt;
#X connect 0 0 4 0;
#X connect 2 0 1 0;
#X connect 3 0 4 1;
#X connect 4 0 2 0;
#X connect 6 0 3 0;
#X restore 519 396 pd distortion;
#N canvas 0 23 740 505 reverb 0;
#X obj 162 49 inlet~;
#X obj 144 364 outlet~;
#X floatatom 444 156 0 0 120 0 - - -;
#X text 485 156 level \, dB;
#X floatatom 472 173 0 0 100 0 - - -;
#X text 513 173 liveness \, 0-100;
#X floatatom 507 197 4 0 5000 0 - - -, f 4;
#X floatatom 542 220 0 0 100 0 - - -;
#X text 555 195 crossover frequency \, Hz.;
#X text 578 222 HF damping \, percent;
#X obj 235 233 rev3~ 100 90 3000 20;
#X obj 247 331 *~;
#X floatatom 317 299 5 0 0 0 - - -, f 5;
#X obj 26 288 *~;
#X floatatom 66 261 5 0 0 0 - - -, f 5;
#X text 355 299 wet reverb signal;
#X text 103 264 "dry" signal;
#X obj 409 32 receive reverbWetDry;
#X floatatom 410 59 5 0 0 0 - - -, f 5;
#X obj 250 87 expr 1 - $f1;
#X connect 0 0 13 0;
#X connect 0 0 10 0;
#X connect 2 0 10 2;
#X connect 4 0 10 3;
#X connect 6 0 10 4;
#X connect 7 0 10 5;
#X connect 10 0 11 0;
#X connect 10 1 11 0;
#X connect 10 2 11 0;
#X connect 10 3 11 0;
#X connect 11 0 1 0;
#X connect 12 0 11 1;
#X connect 13 0 1 0;
#X connect 14 0 13 1;
#X connect 17 0 18 0;
#X connect 18 0 12 0;
#X connect 18 0 19 0;
#X connect 19 0 14 0;
#X restore 520 520 pd reverb;
#X obj 510 740 dac~;
#X obj 1186 842 hsl 128 15 0 1 0 0 delayFeedback delayFeedback Delay_Feedback
-2 -8 0 10 #fcfcfc #000000 #000000 2100 1;
#X obj 1090 680 hsl 128 15 0 1 0 0 reverbWetDry reverbWetDry Reverb_Wet/Dry
-2 -8 0 10 #fcfcfc #000000 #000000 1350 1;
#X obj 1090 750 hsl 128 15 0 4 0 0 distortionAmnt distortionAmnt Distortion_Amount
-2 -8 0 10 #fcfcfc #000000 #000000 12700 1;
#X obj 1040 840 hsl 128 15 0 10 0 0 delayTime delayTime Delay_Time
-2 -8 0 10 #fcfcfc #000000 #000000 0 1;
#N canvas 1096 666 450 300 masterGain 0;
#X obj 120 47 *~;
#X floatatom 140 23 5 0 0 0 - - -, f 5;
#X obj 142 -6 receive mastergain;
#X obj 92 -51 inlet~;
#X obj 112 112 outlet~;
#X connect 0 0 4 0;
#X connect 1 0 0 1;
#X connect 2 0 1 0;
#X connect 3 0 0 0;
#X restore 510 630 pd masterGain;
#X obj 680 670 hsl 128 15 0 3 0 1 mastergain mastergain Master_Gain
-1 -8 0 10 #fcfcfc #000000 #000000 1600 1;
#N canvas 212 36 450 300 (subpatch) 0;
#X array BassGuitar 769745 float 0 black black;
#X coords 0 1 769744 -1 300 100 1;
#X restore 1702 212 graph;
#X msg 1710 -10 read -resize BassGuitar.wav BassGuitar;
#X msg 1260 140 read -resize PercussionPart.wav Percussion;
#X obj 510 110 tabplay~ BassGuitar;
#X obj 370 110 tabplay~ Percussion;
#X obj 880 660 hsl 128 15 0 1 0 1 Percussion Percussion PERCUSSION
-1 -8 0 10 #fcfcfc #000000 #000000 0 1;
#X text 790 550 Volume Control;
#N canvas 3053 448 450 325 Percussion 0;
#X obj 90 50 *~;
#X floatatom 140 30 5 0 0 0 - - -, f 5;
#X obj 92 -61 inlet~;
#X obj 90 120 outlet~;
#X obj 140 -20 r Percussion;
#X connect 0 0 3 0;
#X connect 1 0 0 1;
#X connect 2 0 0 0;
#X connect 4 0 1 0;
#X restore 370 140 pd Percussion sound;
#N canvas 212 36 450 300 (subpatch) 0;
#X array Lead1 769745 float 0 black black;
#X coords 0 1 769744 -1 300 100 1;
#X restore 1350 318 graph;
#N canvas 212 36 450 300 (subpatch) 0;
#X array Lead2 769745 float 0 black black;
#X coords 0 1 769744 -1 300 100 1;
#X restore 1700 320 graph;
#X msg 1710 20 read -resize Lead1.wav Lead1;
#X msg 1710 50 read -resize Lead2.wav Lead2;
#X obj 660 110 tabplay~ Lead1;
#X obj 810 110 tabplay~ Lead2;
#N canvas 1047 516 450 300 BassGuitar 0;
#X obj 170 155 *~;
#X floatatom 190 131 5 0 0 0 - - -, f 5;
#X obj 142 57 inlet~;
#X obj 162 220 outlet~;
#X obj 192 102 receive BassGuitar;
#X connect 0 0 3 0;
#X connect 1 0 0 1;
#X connect 2 0 0 0;
#X connect 4 0 1 0;
#X restore 510 140 pd BassGuitar sound;
#X obj 880 620 hsl 128 15 0 1 0 1 BassGuitar BassGuitar BASS\\\ GUITAR
-1 -8 0 10 #fcfcfc #000000 #000000 6350 1;
#N canvas 1047 516 450 300 Lead1 0;
#X obj 120 135 *~;
#X floatatom 140 111 5 0 0 0 - - -, f 5;
#X obj 92 37 inlet~;
#X obj 112 200 outlet~;
#X obj 142 82 receive Lead1;
#X connect 0 0 3 0;
#X connect 1 0 0 1;
#X connect 2 0 0 0;
#X connect 4 0 1 0;
#X restore 670 170 pd Lead1 sound;
#X obj 880 700 hsl 128 15 0 1 0 1 Lead1 Lead1 LEAD\\\ 1 -1 -8 0 10
#fcfcfc #000000 #000000 0 1;
#X obj 880 740 hsl 128 15 0 1 0 1 Lead2 Lead2 LEAD\\\ 2 -1 -8 0 10
#fcfcfc #000000 #000000 0 1;
#N canvas 1047 516 450 300 Lead2 0;
#X obj 129 145 *~;
#X floatatom 149 121 5 0 0 0 - - -, f 5;
#X obj 101 47 inlet~;
#X obj 121 210 outlet~;
#X obj 150 90 receive Lead2;
#X connect 0 0 3 0;
#X connect 1 0 0 1;
#X connect 2 0 0 0;
#X connect 4 0 1 0;
#X restore 820 170 pd Lead2 sound;
#X obj 1370 0 t b b b b b;
#X text 1053 404 creation arguments are OSC address;
#X text 1055 365 set message to change OSC address;
#X floatatom 920 320 5 0 0 0 - - -, f 5;
#N canvas 2711 228 1253 825 oscReceive 0;
#X obj 55 184 netreceive -u -b;
#X msg 78 143 listen 0;
#X text 152 143 stop listening;
#X text 64 58 packets from network;
#X text 173 177 UDP packets \, binary output, f 13;
#X obj 45 314 print;
#X obj 45 272 oscparse;
#X text 150 114 listen on port 8000;
#X obj 177 269 oscparse;
#X obj 177 293 list trim;
#X floatatom 834 855 5 0 0 0 - - -, f 5;
#X text 241 267 Parse the OSC message;
#X obj 160 340 route unity;
#X obj 833 832 route trigger;
#X obj 834 882 s osctrig;
#X msg 66 115 listen 8000;
#X obj 66 84 loadbang;
#X floatatom 938 857 5 0 0 0 - - -, f 5;
#X obj 937 834 route tempo;
#X obj 938 884 s osctempo;
#X floatatom 1033 857 5 0 0 0 - - -, f 5;
#X obj 1032 834 route playseq;
#X obj 1033 884 s oscplayseq;
#X floatatom 1131 857 5 0 0 0 - - -, f 5;
#X obj 1130 834 route colwall;
#X obj 1131 884 s oscwall;
#X obj 1242 836 route colfall;
#X floatatom 1238 865 8 0 0 0 - - -, f 8;
#X obj 1237 891 s oscfall;
#X floatatom 8 503 5 0 0 0 - - -, f 5;
#X obj 9 468 route melee;
#X obj 7 534 s melee;
#X obj 190 460 route checkpoint1;
#X obj 200 440 route checkpoint2;
#X obj 210 420 route checkpoint3;
#X obj 220 400 route checkpoint4;
#X obj 240 530 s Lead1;
#X obj 250 510 s Lead2;
#X obj 220 570 s BassGuitar;
#X obj 230 550 s Percussion;
#X floatatom 418 516 5 0 0 0 - - -, f 5;
#X obj 419 481 route health;
#X obj 420 550 s health;
#X connect 0 0 6 0;
#X connect 0 0 8 0;
#X connect 1 0 0 0;
#X connect 6 0 5 0;
#X connect 8 0 9 0;
#X connect 9 0 12 0;
#X connect 10 0 14 0;
#X connect 12 0 30 0;
#X connect 12 0 32 0;
#X connect 12 0 33 0;
#X connect 12 0 34 0;
#X connect 12 0 35 0;
#X connect 12 0 41 0;
#X connect 13 0 10 0;
#X connect 15 0 0 0;
#X connect 16 0 15 0;
#X connect 17 0 19 0;
#X connect 18 0 17 0;
#X connect 20 0 22 0;
#X connect 21 0 20 0;
#X connect 23 0 25 0;
#X connect 24 0 23 0;
#X connect 26 0 27 0;
#X connect 27 0 28 0;
#X connect 29 0 31 0;
#X connect 30 0 29 0;
#X connect 32 0 38 0;
#X connect 33 0 39 0;
#X connect 34 0 36 0;
#X connect 35 0 37 0;
#X connect 40 0 42 0;
#X connect 41 0 40 0;
#X restore 923 269 pd oscReceive;
#X obj 920 405 oscformat PD message;
#X msg 950 370 set PD message;
#N canvas 185 216 1293 998 oscSend 0;
#X msg 158 207 disconnect;
#X obj 61 253 netsend -u -b;
#X obj 59 55 list prepend send;
#X obj 59 80 list trim;
#X msg 150 175 connect 127.0.0.1 8001;
#X obj 59 29 r oscOut;
#X text 301 163 send to port 8001;
#X msg 147 148 connect localhost 8001;
#X obj 147 108 loadbang;
#X connect 0 0 1 0;
#X connect 2 0 3 0;
#X connect 3 0 1 0;
#X connect 4 0 1 0;
#X connect 5 0 2 0;
#X connect 7 0 1 0;
#X connect 8 0 7 0;
#X restore 923 245 pd oscSend;
#X obj 920 440 s oscOut;
#X connect 0 0 1 0;
#X connect 2 0 8 0;
#X connect 3 0 48 0;
#X connect 4 0 3 0;
#X connect 5 0 31 0;
#X connect 5 0 32 0;
#X connect 5 0 40 0;
#X connect 5 0 41 0;
#X connect 7 0 31 0;
#X connect 7 0 32 0;
#X connect 7 0 40 0;
#X connect 7 0 41 0;
#X connect 8 0 10 0;
#X connect 9 0 31 0;
#X connect 9 0 32 0;
#X connect 9 0 40 0;
#X connect 9 0 41 0;
#X connect 10 0 11 0;
#X connect 11 0 12 0;
#X connect 12 0 13 0;
#X connect 14 0 7 0;
#X connect 15 0 17 0;
#X connect 16 0 14 0;
#X connect 17 0 14 1;
#X connect 18 0 19 0;
#X connect 19 0 20 0;
#X connect 20 0 26 0;
#X connect 26 0 21 0;
#X connect 26 0 21 1;
#X connect 29 0 2 0;
#X connect 30 0 2 0;
#X connect 31 0 42 0;
#X connect 32 0 35 0;
#X connect 35 0 18 0;
#X connect 38 0 2 0;
#X connect 39 0 2 0;
#X connect 40 0 44 0;
#X connect 41 0 47 0;
#X connect 42 0 18 0;
#X connect 44 0 18 0;
#X connect 47 0 18 0;
#X connect 48 0 30 0;
#X connect 48 1 29 0;
#X connect 48 2 38 0;
#X connect 48 3 39 0;
#X connect 51 0 53 0;
#X connect 53 0 56 0;
#X connect 54 0 53 0;
